<svg width="27" height="27" viewBox="0 0 27 27" fill="none" xmlns="http://www.w3.org/2000/svg">
<path d="M13.5001 0.0561523C6.04427 0.0561523 0 6.10042 0 13.5562C0 20.2432 4.86704 25.7812 11.2485 26.8536V16.3727H7.99192V12.6011H11.2485V9.82003C11.2485 6.59321 13.2194 4.83478 16.0983 4.83478C17.4772 4.83478 18.6622 4.93753 19.0061 4.98278V8.35567L17.0094 8.35664C15.444 8.35664 15.1422 9.10033 15.1422 10.192V12.5992H18.8773L18.3902 16.3708H15.1422V26.9437C21.8217 26.1308 27 20.4518 27 13.5524C27 6.10042 20.9557 0.0561523 13.5001 0.0561523Z" fill="white"/>
</svg>
