<svg width="27" height="20" viewBox="0 0 27 20" fill="none" xmlns="http://www.w3.org/2000/svg">
<path d="M26.4324 3.12903C26.1256 1.90323 25.2051 0.935484 24.0392 0.596774C21.9375 0 13.5 0 13.5 0C13.5 0 5.0625 0 2.94545 0.596774C1.77955 0.919355 0.874432 1.8871 0.552273 3.12903C0 5.35484 0 10 0 10C0 10 0 14.6452 0.567614 16.871C0.874432 18.0968 1.79489 19.0645 2.9608 19.4032C5.0625 20 13.5 20 13.5 20C13.5 20 21.9375 20 24.0545 19.4032C25.2205 19.0806 26.1256 18.1129 26.4477 16.871C27 14.6452 27 10 27 10C27 10 27 5.35484 26.4324 3.12903ZM10.7386 14.2258V5.77419L17.7955 10L10.7386 14.2258Z" fill="white"/>
</svg>
