<svg width="279" height="115" viewBox="0 0 279 115" fill="none" xmlns="http://www.w3.org/2000/svg">
<path d="M180.355 5.86729C180.355 3.1064 178.115 0.866302 175.354 0.866302H20.851C18.0901 0.866302 15.85 3.1064 15.85 5.86729V109.112H180.349V5.86729H180.355Z" fill="#EBF0F6"/>
<path d="M180.355 109.67C180.662 109.67 180.907 109.419 180.907 109.118V5.86735C180.907 2.80527 178.416 0.314178 175.354 0.314178H20.851C17.7889 0.314178 15.2979 2.80527 15.2979 5.86735V109.112C15.2979 109.419 15.5488 109.664 15.85 109.664H180.355V109.67ZM16.4085 5.86735C16.4085 3.41392 18.4038 1.42482 20.851 1.42482H175.354C177.807 1.42482 179.796 3.4202 179.796 5.86735V108.56H16.4085V5.86735Z" fill="#02498C"/>
<path d="M176.96 113.109C181.001 113.109 195.653 112.676 195.653 108.635V105.862C195.653 105.052 194.994 104.393 194.184 104.393H2.02044C1.211 104.393 0.552155 105.052 0.552155 105.862V108.635C0.552155 112.676 15.2037 113.109 19.2446 113.109H176.96Z" fill="#EBF0F6"/>
<path d="M19.2446 113.667H176.96C177.964 113.667 183.197 113.63 187.903 112.939C193.494 112.118 196.205 110.712 196.205 108.635V105.862C196.205 104.745 195.301 103.841 194.184 103.841H2.02046C0.903561 103.841 0 104.745 0 105.862V108.635C0 110.706 2.71696 112.118 8.30148 112.939C13.0075 113.63 18.2407 113.667 19.2446 113.667ZM1.11063 108.635V105.862C1.11063 105.36 1.51849 104.952 2.02046 104.952H194.191C194.693 104.952 195.1 105.36 195.1 105.862V108.635C195.1 111.208 185.977 112.557 176.966 112.557H19.2446C10.2341 112.557 1.11063 111.208 1.11063 108.635Z" fill="#02498C"/>
<path d="M172.166 98.4197C172.474 98.4197 172.718 98.1687 172.718 97.8676V8.64703C172.718 8.33957 172.467 8.09485 172.166 8.09485H24.0448C23.7373 8.09485 23.4926 8.34584 23.4926 8.64703V97.8613C23.4926 98.1687 23.7436 98.4135 24.0448 98.4135H172.166V98.4197ZM24.597 9.20549H171.608V97.3091H24.597V9.20549Z" fill="#02498C"/>
<path d="M195.188 109.928C195.496 109.928 195.741 109.677 195.741 109.375C195.741 109.068 195.49 108.823 195.188 108.823H1.01649C0.709025 108.823 0.46431 109.074 0.46431 109.375C0.46431 109.683 0.7153 109.928 1.01649 109.928H195.188Z" fill="#02498C"/>
<path d="M78.359 103.841C78.0515 103.841 77.8068 104.092 77.8068 104.393V105.002C77.8068 106.326 78.8861 107.399 80.2038 107.399H116.007C117.331 107.399 118.404 106.32 118.404 105.002V104.393C118.404 104.086 118.153 103.841 117.852 103.841C117.545 103.841 117.3 104.092 117.3 104.393V105.002C117.3 105.711 116.723 106.288 116.014 106.288H80.2101C79.501 106.288 78.9237 105.711 78.9237 105.002V104.393C78.9112 104.092 78.6665 103.841 78.359 103.841Z" fill="#02498C"/>
<path d="M98.1055 5.63519C98.5949 5.63519 98.9965 5.23358 98.9965 4.74415C98.9965 4.25472 98.5949 3.85315 98.1055 3.85315C97.6161 3.85315 97.2145 4.25472 97.2145 4.74415C97.2145 5.23986 97.6098 5.63519 98.1055 5.63519Z" fill="#EBF0F6"/>
<path d="M99.442 4.74412C99.442 4.00997 98.8459 3.40759 98.1055 3.40759C97.3713 3.40759 96.769 4.0037 96.769 4.74412C96.769 5.47826 97.3651 6.08064 98.1055 6.08064C98.8396 6.08064 99.442 5.47826 99.442 4.74412ZM97.66 4.74412C97.66 4.4994 97.8608 4.29863 98.1055 4.29863C98.3502 4.29863 98.551 4.4994 98.551 4.74412C98.551 4.98883 98.3502 5.18964 98.1055 5.18964C97.8545 5.18964 97.66 4.98883 97.66 4.74412Z" fill="#02498C"/>
<path d="M273.943 113.103C276.427 113.103 278.435 111.088 278.435 108.61V16.5281C278.435 14.0433 276.421 12.0353 273.943 12.0353H211.66C209.175 12.0353 207.167 14.0496 207.167 16.5281V108.604C207.167 111.088 209.181 113.096 211.66 113.096H273.943V113.103Z" fill="#EBF0F6"/>
<path d="M273.943 113.667C276.735 113.667 279 111.396 279 108.61V16.5281C279 13.7359 276.729 11.4707 273.943 11.4707H211.659C208.867 11.4707 206.602 13.7422 206.602 16.5281V108.604C206.602 111.396 208.874 113.661 211.659 113.661H273.943V113.667ZM207.731 108.61V16.5281C207.731 14.3634 209.495 12.6001 211.659 12.6001H273.943C276.107 12.6001 277.871 14.3634 277.871 16.5281V108.604C277.871 110.768 276.107 112.532 273.943 112.532H211.659C209.495 112.538 207.731 110.775 207.731 108.61Z" fill="#02498C"/>
<path d="M273.842 20.9894H211.76V103.829H273.842V20.9894Z" fill="#EBF0F6"/>
<path d="M273.842 104.393C274.156 104.393 274.407 104.142 274.407 103.829V20.9895C274.407 20.6757 274.156 20.4247 273.842 20.4247H211.76C211.446 20.4247 211.195 20.6757 211.195 20.9895V103.829C211.195 104.142 211.446 104.393 211.76 104.393H273.842ZM212.331 21.5542H273.284V103.264H212.331V21.5542Z" fill="#02498C"/>
<path d="M245.593 108.39C245.593 106.847 244.345 105.598 242.801 105.598C241.257 105.598 240.009 106.847 240.009 108.39C240.009 109.934 241.257 111.183 242.801 111.183C244.345 111.183 245.593 109.934 245.593 108.39Z" fill="#EBF0F6"/>
<path d="M246.158 108.39C246.158 106.539 244.652 105.033 242.801 105.033C240.95 105.033 239.444 106.539 239.444 108.39C239.444 110.241 240.95 111.747 242.801 111.747C244.652 111.747 246.158 110.241 246.158 108.39ZM240.573 108.39C240.573 107.16 241.571 106.163 242.801 106.163C244.031 106.163 245.029 107.16 245.029 108.39C245.029 109.62 244.031 110.618 242.801 110.618C241.577 110.618 240.573 109.62 240.573 108.39Z" fill="#02498C"/>
<path d="M245.568 17.9902C245.913 17.9902 246.196 17.7078 246.196 17.3627V17.3501C246.196 17.005 245.913 16.7227 245.568 16.7227H240.034C239.689 16.7227 239.407 17.005 239.407 17.3501V17.3627C239.407 17.7078 239.689 17.9902 240.034 17.9902H245.568Z" fill="#EBF0F6"/>
<path d="M245.568 18.5548C246.227 18.5548 246.76 18.0215 246.76 17.3501C246.76 16.6912 246.227 16.1579 245.568 16.1579H240.034C239.375 16.1579 238.842 16.6912 238.842 17.3626C238.842 18.0215 239.375 18.5548 240.034 18.5548H245.568ZM239.977 17.3501C239.977 17.3187 240.003 17.2873 240.04 17.2873H245.574C245.606 17.2873 245.637 17.3124 245.637 17.3626C245.637 17.394 245.612 17.4254 245.574 17.4254H240.04C240.003 17.4254 239.977 17.394 239.977 17.3501Z" fill="#02498C"/>
<path d="M193.858 113.397H165.992C163.645 113.397 161.744 111.496 161.744 109.149V41.6709C161.744 39.3241 163.645 37.4229 165.992 37.4229H193.858C196.205 37.4229 198.106 39.3241 198.106 41.6709V109.149C198.106 111.49 196.199 113.397 193.858 113.397Z" fill="#EBF0F6"/>
<path d="M193.858 113.667H165.992C163.501 113.667 161.474 111.641 161.474 109.149V41.671C161.474 39.1799 163.501 37.1531 165.992 37.1531H193.858C196.349 37.1531 198.376 39.1799 198.376 41.671V109.149C198.376 111.641 196.349 113.667 193.858 113.667ZM165.986 37.6928C163.796 37.6928 162.008 39.4748 162.008 41.671V109.149C162.008 111.339 163.79 113.128 165.986 113.128H193.852C196.042 113.128 197.83 111.346 197.83 109.149V41.671C197.83 39.4811 196.048 37.6928 193.852 37.6928H165.986Z" fill="#02498C" stroke="#02498C"/>
<path d="M164.202 103.78V47.015H195.636V103.78H164.202Z" fill="#EBF0F6" stroke="#02498C"/>
<path d="M196.136 104.55H163.702C163.551 104.55 163.432 104.431 163.432 104.28V46.515C163.432 46.3645 163.551 46.2452 163.702 46.2452H196.136C196.286 46.2452 196.406 46.3645 196.406 46.515V104.28C196.412 104.431 196.286 104.55 196.136 104.55ZM163.978 104.011H195.872V46.7849H163.978V104.011Z" fill="#02498C" stroke="#02498C"/>
<path d="M182.934 42.7941H176.91C176.383 42.7941 175.956 42.3674 175.956 41.8403V41.8278C175.956 41.3007 176.383 40.874 176.91 40.874H182.934C183.461 40.874 183.888 41.3007 183.888 41.8278V41.8403C183.881 42.3674 183.455 42.7941 182.934 42.7941ZM176.91 41.4199C176.684 41.4199 176.502 41.6019 176.502 41.8278V41.8403C176.502 42.0662 176.684 42.2482 176.91 42.2482H182.934C183.16 42.2482 183.342 42.0662 183.342 41.8403V41.8278C183.342 41.6019 183.16 41.4199 182.934 41.4199H176.91Z" fill="#02498C"/>
<path d="M182.683 110.67H177.155C176.847 110.67 176.594 110.417 176.594 110.11V107.28C176.594 106.972 176.847 106.719 177.155 106.719H182.683C182.99 106.719 183.243 106.972 183.243 107.28V110.11C183.243 110.417 182.99 110.67 182.683 110.67Z" fill="#EBF0F6" stroke="#02498C"/>
<mask id="path-24-inside-1" fill="white">
<path d="M182.683 111.377H177.155C176.458 111.377 175.887 110.806 175.887 110.11V107.28C175.887 106.583 176.458 106.012 177.155 106.012H182.683C183.379 106.012 183.95 106.583 183.95 107.28V110.11C183.95 110.812 183.386 111.377 182.683 111.377ZM177.155 106.433C176.684 106.433 176.301 106.815 176.301 107.286V110.116C176.301 110.586 176.684 110.969 177.155 110.969H182.683C183.153 110.969 183.536 110.586 183.536 110.116V107.286C183.536 106.815 183.153 106.433 182.683 106.433H177.155Z"/>
</mask>
<path d="M182.683 111.377H177.155C176.458 111.377 175.887 110.806 175.887 110.11V107.28C175.887 106.583 176.458 106.012 177.155 106.012H182.683C183.379 106.012 183.95 106.583 183.95 107.28V110.11C183.95 110.812 183.386 111.377 182.683 111.377ZM177.155 106.433C176.684 106.433 176.301 106.815 176.301 107.286V110.116C176.301 110.586 176.684 110.969 177.155 110.969H182.683C183.153 110.969 183.536 110.586 183.536 110.116V107.286C183.536 106.815 183.153 106.433 182.683 106.433H177.155Z" fill="#02498C"/>
<path d="M183.95 110.11H182.95H183.95ZM182.683 110.377H177.155V112.377H182.683V110.377ZM177.155 110.377C177.01 110.377 176.887 110.254 176.887 110.11H174.887C174.887 111.358 175.906 112.377 177.155 112.377V110.377ZM176.887 110.11V107.28H174.887V110.11H176.887ZM176.887 107.28C176.887 107.136 177.011 107.012 177.155 107.012V105.012C175.906 105.012 174.887 106.031 174.887 107.28H176.887ZM177.155 107.012H182.683V105.012H177.155V107.012ZM182.683 107.012C182.827 107.012 182.95 107.135 182.95 107.28H184.95C184.95 106.031 183.932 105.012 182.683 105.012V107.012ZM182.95 107.28V110.11H184.95V107.28H182.95ZM182.95 110.11C182.95 110.26 182.833 110.377 182.683 110.377V112.377C183.938 112.377 184.95 111.365 184.95 110.11H182.95ZM177.155 105.433C176.132 105.433 175.301 106.263 175.301 107.286H177.301C177.301 107.368 177.236 107.433 177.155 107.433V105.433ZM175.301 107.286V110.116H177.301V107.286H175.301ZM175.301 110.116C175.301 111.139 176.132 111.969 177.155 111.969V109.969C177.236 109.969 177.301 110.034 177.301 110.116H175.301ZM177.155 111.969H182.683V109.969H177.155V111.969ZM182.683 111.969C183.706 111.969 184.536 111.139 184.536 110.116H182.536C182.536 110.034 182.601 109.969 182.683 109.969V111.969ZM184.536 110.116V107.286H182.536V110.116H184.536ZM184.536 107.286C184.536 106.263 183.706 105.433 182.683 105.433V107.433C182.601 107.433 182.536 107.368 182.536 107.286H184.536ZM182.683 105.433H177.155V107.433H182.683V105.433Z" fill="#02498C" mask="url(#path-24-inside-1)"/>
<path d="M93.8495 32.543H99.5175C100.867 32.543 101.901 32.8372 102.618 33.4257C103.336 34.0141 103.695 34.8661 103.695 35.9816C103.695 36.5945 103.511 37.1462 103.143 37.6364C102.775 38.1268 102.241 38.4639 101.542 38.6478C102.302 38.7948 102.916 39.1474 103.382 39.7051C103.848 40.2629 104.081 40.9892 104.081 41.884C104.081 42.975 103.698 43.8363 102.931 44.4676C102.164 45.0989 101.119 45.4145 99.7935 45.4145H93.8495V32.543ZM99.4623 37.7284C99.953 37.7284 100.349 37.5844 100.649 37.2963C100.95 37.0082 101.1 36.6252 101.1 36.1471C101.1 35.669 100.95 35.2859 100.649 34.9978C100.349 34.7097 99.953 34.5656 99.4623 34.5656H96.4443V37.7284H99.4623ZM99.2415 43.3919C100.002 43.3919 100.567 43.2417 100.935 42.9414C101.303 42.6411 101.487 42.1844 101.487 41.5715C101.487 40.9585 101.303 40.5019 100.935 40.2016C100.567 39.9012 100.002 39.7511 99.2415 39.7511H96.4443V43.3919H99.2415ZM116.908 45.4145H114.166L113.319 42.5644C113.148 41.976 112.976 41.5193 112.804 41.1945C112.632 40.8696 112.399 40.6214 112.105 40.4499C111.81 40.2782 111.418 40.1924 110.927 40.1924H109.068V45.4145H106.474V32.543H111.682C113.252 32.543 114.411 32.8525 115.16 33.4716C115.908 34.0907 116.282 35.0561 116.282 36.3677C116.282 37.2136 116.058 37.8939 115.611 38.4087C115.163 38.9236 114.546 39.2545 113.761 39.4017C114.387 39.6101 114.859 39.9718 115.178 40.4866C115.497 41.0014 115.792 41.7002 116.061 42.5828L116.908 45.4145ZM111.755 38.1697C112.32 38.1697 112.783 38.0195 113.145 37.7192C113.507 37.4189 113.687 36.9683 113.687 36.3677C113.687 35.7671 113.507 35.3165 113.145 35.0162C112.783 34.7159 112.32 34.5656 111.755 34.5656H109.068V38.1697H111.755ZM126.33 42.4173H121.288L120.423 45.4145H117.828L120.975 35.1541C121.196 34.4186 121.429 33.8485 121.674 33.444C121.92 33.0395 122.211 32.7514 122.548 32.5798C122.886 32.4082 123.306 32.3224 123.809 32.3224C124.312 32.3224 124.729 32.4082 125.06 32.5798C125.392 32.7514 125.683 33.0395 125.934 33.444C126.186 33.8485 126.422 34.4186 126.643 35.1541L129.79 45.4145H127.195L126.33 42.4173ZM125.76 40.4866L124.214 35.1909C124.128 34.8722 123.993 34.7128 123.809 34.7128C123.625 34.7128 123.49 34.8722 123.404 35.1909L121.858 40.4866H125.76ZM135.034 45.6351C134.151 45.6351 133.412 45.537 132.817 45.3409C132.222 45.1448 131.722 44.8752 131.317 44.5319C130.912 44.1886 130.495 43.729 130.066 43.1528L131.814 41.7002C132.317 42.3989 132.805 42.8923 133.277 43.1804C133.749 43.4685 134.335 43.6125 135.034 43.6125C136.004 43.6125 136.709 43.4716 137.151 43.1896C137.592 42.9077 137.813 42.454 137.813 41.8289C137.813 41.5102 137.709 41.2496 137.5 41.0474C137.292 40.8451 136.933 40.6581 136.424 40.4866C135.915 40.315 135.157 40.125 134.151 39.9165C132.973 39.6714 132.099 39.2331 131.529 38.6018C130.958 37.9705 130.673 37.1277 130.673 36.0735C130.673 35.3135 130.866 34.6515 131.253 34.0876C131.639 33.5237 132.188 33.0885 132.9 32.7821C133.611 32.4756 134.439 32.3224 135.384 32.3224C136.611 32.3224 137.586 32.5032 138.31 32.8648C139.034 33.2265 139.623 33.7566 140.077 34.4554L138.365 35.8528C137.985 35.4729 137.669 35.1816 137.418 34.9795C137.166 34.7771 136.881 34.6208 136.562 34.5105C136.243 34.4002 135.85 34.3451 135.384 34.3451C134.685 34.3451 134.157 34.4983 133.802 34.8048C133.446 35.1112 133.268 35.5525 133.268 36.1287C133.268 36.668 133.495 37.0634 133.949 37.3146C134.403 37.566 134.985 37.7713 135.697 37.9307C136.752 38.1513 137.592 38.3781 138.218 38.611C138.844 38.8439 139.365 39.2177 139.782 39.7326C140.199 40.2475 140.408 40.9524 140.408 41.8472C140.408 43.1222 139.963 44.0722 139.074 44.6974C138.184 45.3226 136.838 45.6351 135.034 45.6351ZM142.653 32.543H145.248V45.4145H142.653V32.543ZM152.315 45.4145C150.744 45.4145 149.619 45.0713 148.938 44.3847C148.257 43.6983 147.916 42.7054 147.916 41.4059V32.543H150.511V41.4059C150.511 42.0801 150.658 42.5797 150.953 42.9046C151.247 43.2294 151.701 43.3919 152.315 43.3919H156.437V45.4145H152.315Z" fill="#02498C"/>
<path d="M100.458 54.8088C100.458 55.6815 100.238 56.3741 99.7973 56.8865C99.3566 57.3989 98.7196 57.7111 97.8862 57.8232C98.0785 58.0394 98.343 58.2076 98.6795 58.3276C99.016 58.4478 99.4046 58.5158 99.8454 58.5318V59.2884C99.1242 59.2724 98.5333 59.1483 98.0725 58.9161C97.6118 58.6839 97.2652 58.3357 97.0328 57.8713C95.9992 57.8473 95.2099 57.573 94.665 57.0486C94.1201 56.5242 93.8477 55.7775 93.8477 54.8088V52.2627C93.8477 51.27 94.1322 50.5113 94.7011 49.9869C95.27 49.4624 96.0873 49.2002 97.1531 49.2002C98.2188 49.2002 99.0361 49.4624 99.605 49.9869C100.174 50.5113 100.458 51.27 100.458 52.2627V54.8088ZM99.5929 52.2627C99.5929 51.5021 99.3826 50.9176 98.962 50.5093C98.5413 50.1009 97.9383 49.8968 97.1531 49.8968C96.3677 49.8968 95.7648 50.1009 95.344 50.5093C94.9234 50.9176 94.7131 51.5021 94.7131 52.2627V54.8088C94.7131 55.5694 94.9234 56.1538 95.344 56.5622C95.7648 56.9706 96.3677 57.1747 97.1531 57.1747C97.9383 57.1747 98.5413 56.9706 98.962 56.5622C99.3826 56.1538 99.5929 55.5694 99.5929 54.8088V52.2627ZM105.266 57.8713C104.272 57.8713 103.493 57.6571 102.928 57.2288C102.363 56.8004 102.081 56.2099 102.081 55.4573V49.3324H102.946V55.4573C102.946 55.9937 103.151 56.4141 103.559 56.7184C103.968 57.0226 104.537 57.1747 105.266 57.1747C105.995 57.1747 106.564 57.0226 106.973 56.7184C107.382 56.4141 107.586 55.9937 107.586 55.4573V49.3324H108.451V55.4573C108.451 56.2099 108.169 56.8004 107.604 57.2288C107.039 57.6571 106.26 57.8713 105.266 57.8713ZM112.814 57.7391C111.877 57.7391 111.182 57.533 110.729 57.1207C110.276 56.7083 110.05 56.0779 110.05 55.2291V51.8424C110.05 50.9937 110.276 50.3632 110.729 49.9508C111.182 49.5385 111.877 49.3324 112.814 49.3324H115.711V50.0289H112.814C112.165 50.0289 111.687 50.177 111.378 50.4732C111.069 50.7696 110.915 51.2259 110.915 51.8424V53.1875H115.098V53.8841H110.915V55.2291C110.915 55.8457 111.069 56.302 111.378 56.5982C111.687 56.8945 112.165 57.0426 112.814 57.0426H115.783V57.7391H112.814ZM120.447 49.3324H123.439C124.321 49.3324 125.02 49.4685 125.537 49.7407C126.054 50.013 126.428 50.4533 126.661 51.0617C126.893 51.6703 127.009 52.4949 127.009 53.5357C127.009 54.5846 126.895 55.4113 126.667 56.0158C126.438 56.6203 126.066 57.0586 125.549 57.3308C125.032 57.6031 124.329 57.7391 123.439 57.7391H120.447V49.3324ZM123.439 57.0426C124.105 57.0426 124.633 56.9286 125.026 56.7003C125.419 56.4721 125.703 56.1038 125.879 55.5955C126.056 55.087 126.144 54.4045 126.144 53.5478C126.144 52.691 126.054 52.0065 125.873 51.4941C125.693 50.9817 125.407 50.6094 125.014 50.3772C124.621 50.145 124.097 50.0289 123.439 50.0289H121.312V57.0426H123.439ZM133.103 55.037H129.305L128.476 57.7391H127.61L129.786 50.7134C129.962 50.145 130.152 49.7506 130.357 49.5305C130.561 49.3103 130.843 49.2002 131.204 49.2002C131.565 49.2002 131.849 49.3103 132.057 49.5305C132.266 49.7506 132.458 50.145 132.634 50.7134L134.81 57.7391H133.932L133.103 55.037ZM132.899 54.3644L131.781 50.7255C131.693 50.4533 131.609 50.2651 131.528 50.161C131.448 50.0569 131.34 50.0049 131.204 50.0049C131.076 50.0049 130.972 50.0569 130.891 50.161C130.811 50.2651 130.727 50.4533 130.639 50.7255L129.521 54.3644H132.899ZM131.829 46.6541H132.718L131.528 48.3956H130.867L131.829 46.6541Z" fill="#02498C"/>
<path d="M99.166 74.7433C97.4362 74.7433 96.1173 74.348 95.2094 73.5573C94.3016 72.7667 93.8477 71.599 93.8477 70.0544V66.1194C93.8477 64.5748 94.3016 63.4072 95.2094 62.6165C96.1173 61.8259 97.4362 61.4305 99.166 61.4305C100.368 61.4305 101.353 61.6297 102.12 62.0281C102.886 62.4265 103.497 63.0242 103.951 63.8209L102.092 65.1081C101.712 64.5196 101.316 64.0967 100.905 63.8393C100.494 63.5819 99.9144 63.4532 99.166 63.4532C98.2214 63.4532 97.5312 63.6769 97.0958 64.1243C96.6602 64.5717 96.4425 65.2368 96.4425 66.1194V70.0544C96.4425 70.937 96.6602 71.602 97.0958 72.0494C97.5312 72.4969 98.2214 72.7206 99.166 72.7206C99.9757 72.7206 100.604 72.5828 101.052 72.3069C101.5 72.0311 101.902 71.5867 102.258 70.9737L104.098 72.3345C103.705 72.8983 103.3 73.3519 102.883 73.6952C102.466 74.0385 101.96 74.2989 101.365 74.4767C100.77 74.6544 100.037 74.7433 99.166 74.7433ZM110.116 74.5227C108.484 74.5227 107.312 74.1794 106.601 73.4929C105.889 72.8065 105.533 71.8135 105.533 70.5141V65.6598C105.533 64.3603 105.889 63.3673 106.601 62.6809C107.312 61.9944 108.484 61.6512 110.116 61.6512H114.422V63.6738H110.116C109.441 63.6738 108.941 63.8332 108.616 64.1519C108.291 64.4707 108.128 64.9732 108.128 65.6598V67.0756H113.612V69.0983H108.128V70.5141C108.128 71.1883 108.291 71.6879 108.616 72.0127C108.941 72.3375 109.441 72.5 110.116 72.5H114.459V74.5227H110.116ZM127.101 74.5227H124.359L123.513 71.6725C123.341 71.0841 123.169 70.6275 122.997 70.3026C122.826 69.9778 122.592 69.7296 122.298 69.5579C122.004 69.3864 121.611 69.3005 121.12 69.3005H119.262V74.5227H116.667V61.6512H121.875C123.445 61.6512 124.604 61.9607 125.353 62.5797C126.101 63.1988 126.475 64.1641 126.475 65.4758C126.475 66.3216 126.252 67.0021 125.804 67.5168C125.356 68.0317 124.739 68.3627 123.954 68.5098C124.58 68.7182 125.052 69.0799 125.371 69.5947C125.69 70.1095 125.985 70.8083 126.255 71.691L127.101 74.5227ZM121.948 67.2778C122.513 67.2778 122.976 67.1277 123.338 66.8273C123.7 66.527 123.881 66.0765 123.881 65.4758C123.881 64.8752 123.7 64.4246 123.338 64.1243C122.976 63.824 122.513 63.6738 121.948 63.6738H119.262V67.2778H121.948ZM131.72 63.6738H127.837V61.6512H138.198V63.6738H134.315V74.5227H131.72V63.6738ZM144.105 74.7433C142.4 74.7433 141.096 74.348 140.195 73.5573C139.293 72.7667 138.842 71.599 138.842 70.0544V66.1194C138.842 64.5748 139.293 63.4072 140.195 62.6165C141.096 61.8259 142.4 61.4305 144.105 61.4305C145.81 61.4305 147.114 61.8259 148.016 62.6165C148.917 63.4072 149.368 64.5748 149.368 66.1194V70.0544C149.368 71.599 148.917 72.7667 148.016 73.5573C147.114 74.348 145.81 74.7433 144.105 74.7433ZM144.105 72.7206C144.964 72.7206 145.623 72.4908 146.083 72.0311C146.543 71.5713 146.773 70.9125 146.773 70.0544V66.1194C146.773 65.2613 146.543 64.6024 146.083 64.1427C145.623 63.683 144.964 63.4532 144.105 63.4532C143.246 63.4532 142.587 63.683 142.127 64.1427C141.667 64.6024 141.437 65.2613 141.437 66.1194V70.0544C141.437 70.9125 141.667 71.5713 142.127 72.0311C142.587 72.4908 143.246 72.7206 144.105 72.7206Z" fill="#02498C"/>
<path d="M95.2716 82.5326C94.7755 82.5326 94.4142 82.4263 94.1876 82.2135C93.9611 82.0008 93.8477 81.6877 93.8477 81.2739V79.6932C93.8477 79.2794 93.9611 78.9662 94.1876 78.7534C94.4142 78.5407 94.7755 78.4344 95.2716 78.4344H96.6544V78.9789H95.2716C95.0216 78.9789 94.8371 79.0365 94.7179 79.1516C94.5988 79.2667 94.5392 79.4472 94.5392 79.6932V80.2142H96.3849V80.7528H94.5392V81.2739C94.5392 81.5198 94.5988 81.7003 94.7179 81.8154C94.8371 81.9306 95.0216 81.9882 95.2716 81.9882H96.6779V82.5326H95.2716ZM99.0648 78.4344H100.571C101.02 78.4344 101.375 78.5008 101.637 78.6335C101.899 78.7661 102.088 78.9798 102.205 79.2745C102.323 79.5692 102.381 79.9722 102.381 80.4836C102.381 80.9948 102.323 81.3979 102.205 81.6925C102.088 81.9872 101.899 82.2008 101.637 82.3335C101.375 82.4663 101.02 82.5326 100.571 82.5326H99.0648V78.4344ZM100.571 81.9882C100.848 81.9882 101.068 81.9393 101.23 81.8418C101.392 81.7442 101.509 81.5871 101.581 81.3705C101.654 81.1539 101.69 80.8582 101.69 80.4836C101.69 80.1088 101.654 79.8131 101.581 79.5965C101.509 79.3799 101.392 79.2228 101.23 79.1253C101.068 79.0277 100.848 78.9789 100.571 78.9789H99.7562V81.9882H100.571ZM106.315 82.6028C105.799 82.6028 105.404 82.4926 105.129 82.2721C104.853 82.0515 104.715 81.7442 104.715 81.35V78.4344H105.407V81.35C105.407 81.5841 105.484 81.7617 105.638 81.8828C105.793 82.0038 106.018 82.0643 106.315 82.0643C106.612 82.0643 106.838 82.0038 106.992 81.8828C107.146 81.7617 107.223 81.5841 107.223 81.35V78.4344H107.915V81.35C107.915 81.7442 107.777 82.0515 107.502 82.2721C107.226 82.4926 106.831 82.6028 106.315 82.6028ZM111.966 82.6028C111.419 82.6028 111.001 82.4761 110.712 82.2224C110.423 81.9686 110.278 81.5979 110.278 81.11V79.8571C110.278 79.3692 110.421 78.9983 110.706 78.7446C110.991 78.491 111.403 78.3641 111.942 78.3641C112.313 78.3641 112.62 78.4246 112.862 78.5457C113.104 78.6666 113.3 78.85 113.448 79.0959L112.956 79.4414C112.831 79.254 112.693 79.1184 112.543 79.0345C112.392 78.9506 112.194 78.9086 111.948 78.9086C111.296 78.9086 110.97 79.2248 110.97 79.8571V81.11C110.97 81.7423 111.3 82.0584 111.96 82.0584C112.222 82.0584 112.432 82.0135 112.593 81.9237C112.753 81.834 112.891 81.6934 113.009 81.5023L113.501 81.8652C113.317 82.1228 113.11 82.3101 112.88 82.4273C112.649 82.5443 112.345 82.6028 111.966 82.6028ZM118.138 81.4554H116.456L116.134 82.5326H115.442L116.468 79.2131C116.534 78.9945 116.604 78.8248 116.676 78.7037C116.748 78.5827 116.833 78.4959 116.931 78.4432C117.028 78.3905 117.152 78.3641 117.3 78.3641C117.444 78.3641 117.566 78.3905 117.663 78.4432C117.761 78.4959 117.847 78.5827 117.921 78.7037C117.995 78.8248 118.066 78.9945 118.132 79.2131L119.152 82.5326H118.46L118.138 81.4554ZM117.986 80.9402L117.476 79.2248C117.452 79.1467 117.428 79.0901 117.402 79.055C117.377 79.0199 117.343 79.0023 117.3 79.0023C117.257 79.0023 117.222 79.0199 117.194 79.055C117.167 79.0901 117.142 79.1467 117.118 79.2248L116.609 80.9402H117.986ZM124.152 81.8652C123.984 82.1033 123.797 82.2809 123.592 82.398C123.387 82.5151 123.124 82.5814 122.804 82.597L122.757 82.761C123.089 82.796 123.255 82.9698 123.255 83.282C123.255 83.4654 123.19 83.603 123.059 83.6947C122.928 83.7865 122.74 83.8324 122.494 83.8324C122.275 83.8324 122.076 83.7875 121.896 83.6977L122.007 83.3406C122.148 83.4108 122.287 83.4459 122.423 83.4459C122.54 83.4459 122.626 83.4333 122.681 83.4079C122.736 83.3826 122.763 83.3406 122.763 83.282C122.763 83.2195 122.74 83.1698 122.693 83.1327C122.646 83.0957 122.554 83.0771 122.417 83.0771C122.386 83.0771 122.324 83.0809 122.23 83.0887L122.347 82.5912C121.886 82.5521 121.535 82.4077 121.292 82.1579C121.05 81.9081 120.929 81.5588 120.929 81.11V79.8571C120.929 79.3692 121.072 78.9983 121.357 78.7446C121.642 78.491 122.054 78.3641 122.593 78.3641C122.964 78.3641 123.271 78.4246 123.513 78.5457C123.755 78.6666 123.951 78.85 124.099 79.0959L123.607 79.4414C123.482 79.254 123.344 79.1184 123.194 79.0345C123.043 78.9506 122.845 78.9086 122.599 78.9086C121.947 78.9086 121.62 79.2248 121.62 79.8571V81.11C121.62 81.7423 121.951 82.0584 122.611 82.0584C122.872 82.0584 123.083 82.0135 123.244 81.9237C123.404 81.834 123.542 81.6934 123.66 81.5023L124.152 81.8652ZM128.789 81.4554H127.107L126.785 82.5326H126.093L127.119 79.2131C127.185 78.9945 127.255 78.8248 127.327 78.7037C127.399 78.5827 127.484 78.4959 127.582 78.4432C127.679 78.3905 127.802 78.3641 127.951 78.3641C128.095 78.3641 128.217 78.3905 128.314 78.4432C128.412 78.4959 128.498 78.5827 128.572 78.7037C128.646 78.8248 128.717 78.9945 128.783 79.2131L129.802 82.5326H129.111L128.789 81.4554ZM128.636 80.9402L128.127 79.2248C128.103 79.1467 128.079 79.0901 128.053 79.055C128.028 79.0199 127.994 79.0023 127.951 79.0023C127.908 79.0023 127.873 79.0199 127.845 79.055C127.818 79.0901 127.793 79.1467 127.769 79.2248L127.259 80.9402H128.636ZM126.972 78.0129C126.98 77.7942 127.038 77.6128 127.145 77.4684C127.253 77.324 127.408 77.2517 127.611 77.2517C127.689 77.2517 127.76 77.2634 127.825 77.2869C127.889 77.3103 127.964 77.3454 128.05 77.3922C128.175 77.4587 128.271 77.4918 128.338 77.4918C128.388 77.4918 128.426 77.4694 128.452 77.4245C128.477 77.3796 128.496 77.3064 128.508 77.2049H128.929C128.91 77.4196 128.848 77.6001 128.745 77.7465C128.641 77.8928 128.506 77.966 128.338 77.966C128.259 77.966 128.188 77.9543 128.124 77.9309C128.059 77.9075 127.984 77.8723 127.898 77.8255C127.773 77.7592 127.677 77.7259 127.611 77.7259C127.552 77.7259 127.507 77.7484 127.473 77.7933C127.44 77.8382 127.414 77.9114 127.394 78.0129H126.972ZM133.297 82.6028C132.762 82.6028 132.351 82.4761 132.066 82.2224C131.781 81.9686 131.639 81.5979 131.639 81.11V79.8571C131.639 79.3692 131.781 78.9983 132.066 78.7446C132.351 78.491 132.762 78.3641 133.297 78.3641C133.832 78.3641 134.241 78.491 134.524 78.7446C134.808 78.9983 134.949 79.3692 134.949 79.8571V81.11C134.949 81.5979 134.808 81.9686 134.524 82.2224C134.241 82.4761 133.832 82.6028 133.297 82.6028ZM133.297 82.0584C133.605 82.0584 133.843 81.9775 134.009 81.8154C134.175 81.6535 134.258 81.4183 134.258 81.11V79.8571C134.258 79.5487 134.175 79.3136 134.009 79.1516C133.843 78.9896 133.605 78.9086 133.297 78.9086C132.984 78.9086 132.745 78.9896 132.579 79.1516C132.413 79.3136 132.33 79.5487 132.33 79.8571V81.11C132.33 81.4183 132.413 81.6535 132.579 81.8154C132.745 81.9775 132.984 82.0584 133.297 82.0584Z" fill="#008C33"/>
<path d="M66.1169 76.9056C77.7909 76.9056 87.2545 67.4467 87.2545 55.7785C87.2545 44.1104 77.7909 34.6515 66.1169 34.6515C54.4429 34.6515 44.9793 44.1104 44.9793 55.7785C44.9793 67.4467 54.4429 76.9056 66.1169 76.9056Z" fill="url(#paint0_linear)"/>
<path fill-rule="evenodd" clip-rule="evenodd" d="M66.117 35.3142C70.1671 35.3138 74.1263 36.5139 77.494 38.7626C80.8617 41.0113 83.4865 44.2077 85.0366 47.9475C86.5867 51.6873 86.9924 55.8026 86.2024 59.7729C85.4123 63.7432 83.4621 67.3901 80.5983 70.2525C77.7344 73.1149 74.0857 75.0642 70.1134 75.8538C66.1411 76.6435 62.0238 76.238 58.2821 74.6887C54.5404 73.1394 51.3424 70.5158 49.0926 67.1498C46.8427 63.7838 45.6421 59.8266 45.6425 55.7785C45.6431 50.3512 47.8004 45.1464 51.64 41.3087C55.4796 37.471 60.687 35.3148 66.117 35.3142Z" fill="url(#paint1_linear)"/>
<path fill-rule="evenodd" clip-rule="evenodd" d="M45.1339 53.2298C47.5102 54.3233 48.8552 51.7078 52.7418 56.1297C55.229 58.9606 59.2473 61.2542 59.4481 65.2349C59.6175 68.5801 62.7301 71.0493 62.408 74.5722C62.3578 75.1326 62.0419 75.7619 61.6089 76.4267C64.1158 76.9701 66.7003 77.0558 69.2377 76.6797C70.702 74.4614 71.6935 73.4516 74.2894 72.9749C81.458 71.6598 79.5461 68.3753 83.4285 62.1657C84.8258 59.9328 86.3131 58.2142 87.2397 56.5207C87.2397 56.2761 87.2544 56.0315 87.2544 55.7847C87.2595 53.0399 86.728 50.3204 85.6897 47.7793C84.6794 46.9095 83.2423 46.1192 81.1965 45.5191C77.4313 44.4152 74.3229 44.2647 72.4905 38.2182C71.1036 33.6395 67.6668 37.591 62.6799 34.9316C58.1696 35.6766 54.0222 37.8623 50.8591 41.161C47.6959 44.4598 45.6872 48.6942 45.1339 53.2298Z" fill="#023C72"/>
<path fill-rule="evenodd" clip-rule="evenodd" d="M60.6258 70.9781C59.8832 70.9781 59.5674 70.8276 58.7955 69.4247L53.1623 59.203C52.7962 58.5758 52.3423 57.8147 52.0034 57.1603C51.8403 56.8446 49.9409 53.9594 51.7127 53.9594C52.5013 53.9594 57.2706 57.6119 58.2914 58.2935C60.1615 59.5375 60.8685 60.5202 62.9582 58.5026L80.3682 41.9396C80.5774 41.7306 80.8807 41.4002 81.2447 41.0364C82.1489 41.9577 82.9667 42.9599 83.6879 44.0304L62.0524 70.2882C61.563 70.8924 61.3642 70.9886 60.6258 70.9781Z" fill="#023C72"/>
<path fill-rule="evenodd" clip-rule="evenodd" d="M46.6422 39.2886C46.479 42.3578 37.4801 45.5358 43.8015 51.1641C46.9957 54.0075 48.0981 49.7612 52.5745 54.8564C55.0637 57.6872 59.0821 59.9808 59.2829 63.9616C59.4523 67.3068 62.5628 69.776 62.2428 73.2989C62.0859 75.0133 59.4565 77.3591 58.624 79.4269C58.2914 80.2632 59.3896 81.0514 60.6907 81.6473C64.4768 83.3784 64.2467 82.6592 66.4933 79.3474C69.9741 74.2355 70.3213 72.3915 74.1242 71.6932C81.2928 70.3781 79.3809 67.0935 83.2633 60.884C85.6437 57.0809 88.2836 54.7686 87.9677 51.5153C87.7585 49.3556 86.9804 45.9832 81.025 44.2416C77.2598 43.1377 74.1535 42.9872 72.3211 36.9407C70.93 32.3411 67.4786 36.3323 62.4687 33.6331C57.9713 31.2183 58.2035 30.8587 53.2125 33.6791C52.1561 34.2729 50.4283 33.7837 49.167 34.0283C46.5459 34.5343 46.7698 36.8633 46.6422 39.2886Z" fill="url(#paint2_linear)"/>
<path fill-rule="evenodd" clip-rule="evenodd" d="M47.3136 39.3245C47.2676 40.2173 46.6966 41.0138 46.1318 41.6682C45.5042 42.4021 44.7763 43.067 44.1111 43.7757C43.3748 44.5598 42.5339 45.5529 42.2954 46.6254C41.9314 48.2562 43.1154 49.6528 44.2492 50.6627C45.0461 51.3714 45.6716 51.6369 46.7279 51.57C47.6923 51.5073 48.4014 51.3819 49.3699 51.6641C50.8341 52.0823 52.0892 53.2949 53.0807 54.4135C55.6306 57.3133 59.7368 59.6215 59.9606 63.9285C59.9863 64.3759 60.065 64.8188 60.1949 65.2477C60.4773 66.2116 60.9668 67.1294 61.427 68.0138C62.316 69.7324 63.1004 71.359 62.9184 73.3599C62.7365 75.3607 60.0548 77.6773 59.2494 79.6781C59.2411 79.6965 59.2368 79.7165 59.2369 79.7367C59.2369 79.906 59.5297 80.1548 59.6552 80.2593C60.0599 80.5721 60.5019 80.8333 60.971 81.0371C61.5211 81.2901 63.1485 82.0825 63.7698 81.8379C64.0731 81.7166 64.366 81.3194 64.55 81.0643C65.0333 80.3932 65.4683 79.6656 65.9369 78.9735C66.4578 78.2083 66.9619 77.4368 67.4597 76.6591C67.8551 76.0444 68.2442 75.4255 68.6521 74.8192C69.2796 73.8742 69.9824 72.9375 70.9112 72.2539C71.84 71.5702 72.8838 71.2419 74.0029 71.037C75.7495 70.7151 77.6635 70.2007 78.7805 68.7079C79.4667 67.7943 79.8955 66.5336 80.3034 65.4694C80.936 63.7544 81.7362 62.1059 82.6922 60.5477C83.5854 59.1198 84.602 57.8047 85.5517 56.4206C86.2462 55.4108 86.9595 54.2713 87.2251 53.0587C87.3281 52.578 87.3556 52.0843 87.3067 51.5951C87.1812 50.3156 86.8884 49.1866 86.1144 48.1287C84.8823 46.431 82.8052 45.4734 80.8451 44.9005C79.3683 44.4678 77.8058 44.1521 76.4147 43.4809C73.7519 42.1972 72.5114 39.8681 71.6747 37.1439C71.476 36.4853 71.1559 35.7138 70.4803 35.4211C70.0783 35.2775 69.6513 35.2171 69.2252 35.2434C68.5977 35.2434 67.9701 35.3165 67.3426 35.3416C65.46 35.4127 63.843 35.1326 62.1612 34.2335C61.2973 33.7861 60.4438 33.2739 59.5737 32.8557C59.1026 32.598 58.5863 32.4333 58.0529 32.3707C57.4942 32.3697 56.9425 32.4962 56.4401 32.7407C55.4484 33.1961 54.4813 33.7035 53.543 34.2607C52.7419 34.7123 51.7378 34.6789 50.8488 34.6412C50.3307 34.5986 49.8096 34.6126 49.2946 34.683C48.7507 34.7897 48.2487 35.0008 47.9224 35.465C47.596 35.9291 47.504 36.5104 47.4391 37.0351C47.3534 37.7899 47.3534 38.5614 47.3136 39.3203V39.3245Z" fill="url(#paint3_linear)"/>
<path fill-rule="evenodd" clip-rule="evenodd" d="M51.7252 53.9595C52.5515 53.9971 57.2748 57.6162 58.2914 58.2936C60.1614 59.5376 60.8685 60.5202 62.9582 58.5027L78.6299 43.581C79.3913 43.8047 80.1925 43.9991 81.0271 44.2458C81.6797 44.4343 82.3197 44.6641 82.9432 44.9337L62.0524 70.2882C61.9729 70.3844 61.9018 70.468 61.8432 70.5391C61.0484 68.3208 59.4042 66.3576 59.2829 63.9616C59.0737 59.9892 55.0637 57.6894 52.5745 54.8564C52.2775 54.5177 51.9951 54.2292 51.7252 53.9595Z" fill="#01742B"/>
<path fill-rule="evenodd" clip-rule="evenodd" d="M59.9084 70.3219C59.1658 70.3093 58.8499 70.1713 58.0801 68.7684L52.4448 58.5447C52.0788 57.9174 51.6248 57.1585 51.286 56.5041C51.1228 56.1884 49.2235 53.3031 50.9952 53.3031C51.7838 53.3031 56.5531 56.9557 57.5739 57.6352C59.444 58.8896 60.151 59.8639 62.2407 57.8443L79.6507 41.2667C80.1068 40.8109 81.0334 39.7551 82.0249 39.0672C84.0602 37.656 85.7149 39.0777 84.9346 40.7837C84.6501 41.4109 84.0979 41.9922 83.6795 42.5211L61.3433 69.6319C60.8455 70.2361 60.6468 70.3323 59.9084 70.3219Z" fill="url(#paint4_linear)"/>
<path fill-rule="evenodd" clip-rule="evenodd" d="M50.9658 53.976H50.9197C50.9588 54.2801 51.0449 54.5764 51.1749 54.8541C51.3005 55.1341 51.4402 55.4077 51.5933 55.6737C51.6916 55.8451 51.8025 56.0207 51.8945 56.1943C52.248 56.8779 52.6517 57.5407 53.0366 58.2077V58.2202L58.6719 68.444C58.8142 68.6991 59.2451 69.504 59.5505 69.6085C59.6715 69.6385 59.7961 69.6518 59.9207 69.6483C60.4604 69.6483 60.4793 69.6253 60.8265 69.2029L83.1439 42.1089C83.5225 41.628 84.0685 41.0635 84.3216 40.5115C84.4743 40.1791 84.5433 39.7421 84.2881 39.439C83.8216 38.8828 82.874 39.3031 82.4055 39.6271C81.5311 40.2335 80.868 41.005 80.1254 41.7472L80.1129 41.7597L62.7028 58.3373C61.9477 59.0565 61.0001 59.8008 59.8894 59.6545C58.9334 59.5353 57.9879 58.7199 57.1993 58.1909C56.781 57.9045 56.348 57.5888 55.9317 57.2856C55.3041 56.8319 54.6766 56.3783 54.0491 55.9308C53.4215 55.4834 52.7396 55.0109 52.066 54.5844C51.7193 54.3473 51.3509 54.1436 50.9658 53.976Z" fill="url(#paint5_linear)"/>
<defs>
<linearGradient id="paint0_linear" x1="77.5101" y1="39.062" x2="54.0327" y2="73.9725" gradientUnits="userSpaceOnUse">
<stop offset="0.1875" stop-color="#003F7E"/>
<stop offset="0.915393" stop-color="#045CA8"/>
</linearGradient>
<linearGradient id="paint1_linear" x1="77.156" y1="39.5868" x2="54.4128" y2="73.4056" gradientUnits="userSpaceOnUse">
<stop stop-color="#003F7E"/>
<stop offset="0.915393" stop-color="#045CA8"/>
</linearGradient>
<linearGradient id="paint2_linear" x1="64.7734" y1="31.6912" x2="64.7734" y2="82.5584" gradientUnits="userSpaceOnUse">
<stop offset="0.354167" stop-color="#008434"/>
<stop offset="0.473958" stop-color="#008434"/>
<stop offset="0.604167" stop-color="#008434"/>
<stop offset="0.864583" stop-color="#00A53F"/>
</linearGradient>
<linearGradient id="paint3_linear" x1="64.7793" y1="32.3707" x2="64.7793" y2="81.8841" gradientUnits="userSpaceOnUse">
<stop offset="0.140625" stop-color="#00AA49"/>
<stop offset="0.354167" stop-color="#008434"/>
<stop offset="0.473958" stop-color="#008434"/>
<stop offset="0.604167" stop-color="#008434"/>
<stop offset="0.864583" stop-color="#00A53F"/>
</linearGradient>
<linearGradient id="paint4_linear" x1="84.5715" y1="43.8763" x2="64.7278" y2="72.2795" gradientUnits="userSpaceOnUse">
<stop stop-color="#FFEA00"/>
<stop offset="1" stop-color="#FFCC00"/>
</linearGradient>
<linearGradient id="paint5_linear" x1="67.6889" y1="39.1678" x2="67.6889" y2="69.6488" gradientUnits="userSpaceOnUse">
<stop offset="0.171875" stop-color="#FFE834"/>
<stop offset="0.385417" stop-color="#FFD632"/>
<stop offset="0.485436" stop-color="#FFD632"/>
<stop offset="0.583333" stop-color="#FFD632"/>
<stop offset="0.609375" stop-color="#FFD632"/>
<stop offset="0.817708" stop-color="#FFEB3F"/>
</linearGradient>
</defs>
</svg>