<svg width="189" height="56" viewBox="0 0 189 56" fill="none" xmlns="http://www.w3.org/2000/svg">
<path d="M188.396 49.3752V49.3756C188.399 52.7435 185.649 55.4846 182.277 55.4846H6.6206C3.24605 55.4846 0.5 52.7438 0.5 49.3752V6.6164C0.5 3.24449 3.2466 0.5 6.6206 0.5H182.276C185.646 0.5 188.396 3.24469 188.396 6.6164V49.3752Z" stroke="white"/>
<path d="M42.1792 27.6977C42.1386 23.1855 45.8738 20.9903 46.0446 20.8881C43.9292 17.8039 40.6504 17.3825 39.4982 17.3489C36.7444 17.0591 34.0732 18.9967 32.6704 18.9967C31.2396 18.9967 29.0794 17.3769 26.7512 17.4245C23.7552 17.4707 20.9524 19.2053 19.4152 21.8989C16.2428 27.3911 18.6088 35.4621 21.6482 39.9015C23.1686 42.0771 24.9452 44.5033 27.2706 44.4179C29.5456 44.3255 30.3954 42.9689 33.1408 42.9689C35.861 42.9689 36.659 44.4179 39.0306 44.3633C41.4722 44.3255 43.0094 42.1793 44.4766 39.9855C46.2336 37.4949 46.9392 35.0393 46.9672 34.9133C46.9112 34.8937 42.2268 33.1045 42.1792 27.6977Z" fill="white"/>
<path d="M37.6992 14.4285C38.9228 12.8983 39.76 10.8165 39.5276 8.70386C37.7566 8.78226 35.5418 9.92886 34.2664 11.4255C33.138 12.7443 32.13 14.9059 32.3904 16.9387C34.3798 17.0871 36.4224 15.9349 37.6992 14.4285Z" fill="white"/>
<path d="M75.131 44.1058H71.9516L70.21 38.6332H64.1564L62.4974 44.1058H59.402L65.401 25.4746H69.1054L75.131 44.1058ZM69.685 36.3372L68.11 31.4722C67.9434 30.9752 67.6298 29.8048 67.1706 27.9624H67.1146C66.9298 28.7548 66.6344 29.9252 66.2298 31.4722L64.6814 36.3372H69.685Z" fill="white"/>
<path d="M90.5282 37.2232C90.5282 39.508 89.908 41.314 88.6662 42.6398C87.5546 43.82 86.1728 44.4094 84.525 44.4094C82.7456 44.4094 81.466 43.7752 80.689 42.504V49.553H77.7042V35.0868C77.7042 33.6518 77.6664 32.1804 77.5936 30.6712H80.2186L80.3852 32.8006H80.4412C81.4366 31.1962 82.9472 30.394 84.9744 30.394C86.5592 30.394 87.8822 31.0198 88.9406 32.2728C89.9976 33.5286 90.5282 35.1778 90.5282 37.2232ZM87.4874 37.3324C87.4874 36.0248 87.1934 34.9468 86.6026 34.097C85.9572 33.2136 85.0906 32.7712 84.0042 32.7712C83.2678 32.7712 82.5986 33.0176 82.0008 33.5034C81.4016 33.9934 81.0096 34.6332 80.8262 35.4256C80.7338 35.7952 80.6876 36.0962 80.6876 36.3342V38.5756C80.6876 39.5514 80.9872 40.376 81.5864 41.0508C82.1856 41.7228 82.964 42.0602 83.9216 42.0602C85.0458 42.0602 85.9208 41.6248 86.5466 40.761C87.1738 39.8944 87.4874 38.752 87.4874 37.3324Z" fill="white"/>
<path d="M105.98 37.2232C105.98 39.508 105.36 41.314 104.118 42.6398C103.005 43.82 101.625 44.4094 99.9754 44.4094C98.196 44.4094 96.9164 43.7752 96.1394 42.504V49.553H93.1546V35.0868C93.1546 33.6518 93.1168 32.1804 93.044 30.6712H95.669L95.8356 32.8006H95.8916C96.8856 31.1962 98.3962 30.394 100.425 30.394C102.008 30.394 103.331 31.0198 104.392 32.2728C105.448 33.5286 105.98 35.1778 105.98 37.2232ZM102.938 37.3324C102.938 36.0248 102.642 34.9468 102.052 34.097C101.406 33.2136 100.542 32.7712 99.456 32.7712C98.7196 32.7712 98.0504 33.0176 97.4498 33.5034C96.8506 33.9934 96.46 34.6332 96.2766 35.4256C96.1856 35.7952 96.1366 36.0962 96.1366 36.3342V38.5756C96.1366 39.5514 96.4376 40.376 97.034 41.0508C97.6332 41.7214 98.4116 42.0602 99.372 42.0602C100.498 42.0602 101.373 41.6248 101.997 40.761C102.624 39.8944 102.938 38.752 102.938 37.3324Z" fill="white"/>
<path d="M123.256 38.8795C123.256 40.4657 122.702 41.7551 121.6 42.7505C120.387 43.8369 118.695 44.3815 116.525 44.3815C114.52 44.3815 112.913 43.9951 111.7 43.2209L112.391 40.7331C113.7 41.5087 115.137 41.8951 116.703 41.8951C117.828 41.8951 118.703 41.6403 119.328 41.1349C119.953 40.6281 120.27 39.9505 120.27 39.1049C120.27 38.3475 120.008 37.7133 119.494 37.1967C118.978 36.6815 118.124 36.2013 116.924 35.7603C113.662 34.5437 112.029 32.7643 112.029 30.4235C112.029 28.8947 112.606 27.6431 113.757 26.6645C114.908 25.6873 116.434 25.1987 118.332 25.1987C120.028 25.1987 121.44 25.4941 122.562 26.0835L121.813 28.5167C120.757 27.9455 119.566 27.6599 118.233 27.6599C117.18 27.6599 116.354 27.9189 115.763 28.4341C115.266 28.8947 115.014 29.4561 115.014 30.1225C115.014 30.8575 115.301 31.4679 115.872 31.9467C116.368 32.3877 117.272 32.8679 118.58 33.3831C120.184 34.0299 121.363 34.7831 122.118 35.6483C122.878 36.5135 123.256 37.5929 123.256 38.8795Z" fill="white"/>
<path d="M133.15 32.9112H129.86V39.4338C129.86 41.0928 130.439 41.9202 131.601 41.9202C132.135 41.9202 132.577 41.8754 132.927 41.7816L133.01 44.0482C132.422 44.268 131.648 44.3786 130.689 44.3786C129.51 44.3786 128.589 44.0188 127.924 43.2992C127.261 42.5796 126.928 41.3742 126.928 39.6774V32.9056H124.968V30.6656H126.928V28.2058L129.86 27.321V30.6656H133.15V32.9112Z" fill="white"/>
<path d="M147.965 37.278C147.965 39.343 147.374 41.0384 146.195 42.3642C144.962 43.7292 143.321 44.4096 141.275 44.4096C139.301 44.4096 137.732 43.7558 136.562 42.4496C135.391 41.1406 134.806 39.4914 134.806 37.502C134.806 35.4202 135.411 33.715 136.616 32.3892C137.824 31.062 139.451 30.3984 141.497 30.3984C143.468 30.3984 145.051 31.0536 146.25 32.3612C147.395 33.6296 147.965 35.2676 147.965 37.278ZM144.871 37.3466C144.871 36.116 144.605 35.0604 144.071 34.177C143.445 33.1102 142.549 32.5768 141.389 32.5768C140.193 32.5768 139.276 33.1102 138.652 34.177C138.117 35.0604 137.851 36.1342 137.851 37.4026C137.851 38.6346 138.117 39.693 138.652 40.5736C139.297 41.6404 140.197 42.1738 141.364 42.1738C142.505 42.1738 143.399 41.6292 144.046 40.547C144.595 39.6426 144.871 38.58 144.871 37.3466Z" fill="white"/>
<path d="M157.671 33.2962C157.375 33.2416 157.059 33.2136 156.73 33.2136C155.68 33.2136 154.868 33.6084 154.297 34.4036C153.801 35.1036 153.552 35.9884 153.552 37.0566V44.1056H150.567V34.902C150.567 33.355 150.538 31.9438 150.48 30.6726H153.08L153.189 33.243H153.272C153.588 32.3596 154.084 31.647 154.764 31.1136C155.429 30.6334 156.148 30.394 156.922 30.394C157.198 30.394 157.447 30.4136 157.668 30.4486L157.671 33.2962Z" fill="white"/>
<path d="M171.02 36.7528C171.02 37.2876 170.985 37.7384 170.911 38.1066H161.956C161.99 39.4338 162.424 40.4502 163.255 41.1502C164.01 41.7746 164.986 42.0882 166.184 42.0882C167.51 42.0882 168.72 41.8782 169.807 41.454L170.275 43.5246C169.004 44.079 167.503 44.3548 165.771 44.3548C163.688 44.3548 162.053 43.7416 160.863 42.518C159.676 41.293 159.081 39.6466 159.081 37.5844C159.081 35.56 159.634 33.873 160.741 32.5276C161.9 31.0912 163.467 30.373 165.438 30.373C167.374 30.373 168.84 31.0912 169.835 32.5276C170.624 33.6658 171.02 35.077 171.02 36.7528ZM168.174 35.9786C168.195 35.0924 167.999 34.3294 167.594 33.684C167.077 32.8524 166.282 32.438 165.217 32.438C164.241 32.438 163.446 32.8426 162.841 33.6546C162.344 34.3 162.049 35.0756 161.958 35.9758L168.174 35.9786Z" fill="white"/>
<path d="M63.0784 18.8875C62.3714 18.8875 61.733 18.8469 61.1492 18.7783V9.77072C61.761 9.64892 62.5198 9.58032 63.4312 9.58032C65.674 9.58032 66.8416 10.4497 66.8416 11.8763C66.8416 12.7457 66.2858 13.5199 65.3198 13.8601V13.9021C66.4202 14.1611 67.1678 15.0431 67.1678 16.1841C67.1678 17.7871 65.9708 18.8875 63.0784 18.8875ZM63.5656 10.6821C63.1442 10.6821 62.8334 10.7087 62.6024 10.7633V13.4527H63.5124C64.652 13.4527 65.359 12.8815 65.359 12.0261C65.3604 11.1301 64.7626 10.6821 63.5656 10.6821ZM63.4718 14.5265H62.6024V17.7199C62.7788 17.7605 63.0784 17.7745 63.4998 17.7745C64.8578 17.7745 65.632 17.1627 65.632 16.1435C65.632 15.1103 64.8172 14.5265 63.4718 14.5265Z" fill="white"/>
<path d="M73.0184 18.8063L72.9106 18.0461H72.87C72.422 18.6579 71.7696 18.9561 70.9408 18.9561C69.7578 18.9561 68.9164 18.1273 68.9164 17.0129C68.9164 15.3833 70.329 14.5405 72.7748 14.5405V14.4187C72.7748 13.5493 72.3128 13.1139 71.4042 13.1139C70.7504 13.1139 70.1806 13.2777 69.678 13.6039L69.3798 12.6393C69.9916 12.2585 70.7504 12.0681 71.6478 12.0681C73.3726 12.0681 74.2434 12.9781 74.2434 14.7995V17.2313C74.2434 17.8977 74.2714 18.4143 74.3386 18.8077L73.0184 18.8063ZM72.8154 15.5177C71.1844 15.5177 70.3696 15.9125 70.3696 16.8491C70.3696 17.5421 70.791 17.8809 71.3762 17.8809C72.1224 17.8809 72.8154 17.3111 72.8154 16.5369V15.5177Z" fill="white"/>
<path d="M77.511 11.1161C77.0224 11.1161 76.6416 10.7353 76.6416 10.2327C76.6416 9.73008 77.0364 9.36328 77.539 9.36328C78.0416 9.36328 78.449 9.73008 78.4364 10.2327C78.435 10.7633 78.0556 11.1161 77.511 11.1161ZM78.2726 18.8063H76.8054V12.2039H78.2726V18.8063Z" fill="white"/>
<path d="M86.2596 18.8064H84.602L83.7466 17.4204C83.5548 17.1082 83.3518 16.7414 83.1208 16.32H83.0942C82.957 16.5776 82.754 16.9444 82.4684 17.4204L81.6536 18.8064H80.052L82.306 15.4366L80.1318 12.2026H81.7628L82.5916 13.52C82.754 13.7776 82.9584 14.1178 83.2034 14.5658H83.244C83.4484 14.1724 83.6514 13.8182 83.8418 13.492L84.6174 12.2012H86.2204L84.0336 15.3806L86.2596 18.8064Z" fill="white"/>
<path d="M91.7042 18.8063L91.5964 18.0461H91.5558C91.1078 18.6579 90.4554 18.9561 89.6266 18.9561C88.4436 18.9561 87.6022 18.1273 87.6022 17.0129C87.6022 15.3833 89.0148 14.5405 91.4606 14.5405V14.4187C91.4606 13.5493 90.9986 13.1139 90.0886 13.1139C89.4376 13.1139 88.8664 13.2777 88.3638 13.6039L88.0656 12.6393C88.6774 12.2585 89.4376 12.0681 90.3336 12.0681C92.0584 12.0681 92.9292 12.9781 92.9292 14.7995V17.2313C92.9292 17.8977 92.9572 18.4143 93.0244 18.8077L91.7042 18.8063ZM91.4998 15.5177C89.8702 15.5177 89.054 15.9125 89.054 16.8491C89.054 17.5421 89.4754 17.8809 90.0606 17.8809C90.8068 17.8809 91.4998 17.3111 91.4998 16.5369V15.5177Z" fill="white"/>
<path d="M98.9828 13.4947C98.8344 13.4667 98.6832 13.4541 98.5208 13.4541C97.5674 13.4541 96.9598 14.2017 96.9598 15.3427V18.8077H95.4926V14.2843C95.4926 13.5241 95.4926 12.8297 95.452 12.2053H96.7288V13.4681H96.824C97.1082 12.6253 97.8166 12.0681 98.6174 12.0681C98.7546 12.0681 98.875 12.0821 98.9842 12.0961L98.9828 13.4947Z" fill="white"/>
<path d="M110.554 18.8062H109.085V15.015C109.085 13.8475 108.637 13.2622 107.754 13.2622C106.884 13.2622 106.288 14.0098 106.288 14.8792V18.8062H104.819V14.091C104.819 13.5072 104.805 12.8814 104.765 12.2024H106.056L106.124 13.2216H106.165C106.558 12.5161 107.36 12.0667 108.256 12.0667C109.642 12.0667 110.554 13.1264 110.554 14.8512V18.8062Z" fill="white"/>
<path d="M116.757 18.8063L116.652 18.0461H116.612C116.165 18.6579 115.51 18.9561 114.681 18.9561C113.498 18.9561 112.659 18.1273 112.659 17.0129C112.659 15.3833 114.071 14.5405 116.518 14.5405V14.4187C116.518 13.5493 116.056 13.1139 115.146 13.1139C114.495 13.1139 113.924 13.2777 113.421 13.6039L113.123 12.6393C113.733 12.2585 114.495 12.0681 115.389 12.0681C117.114 12.0681 117.985 12.9781 117.985 14.7995V17.2313C117.985 17.8977 118.014 18.4143 118.08 18.8077L116.757 18.8063ZM116.556 15.5177C114.926 15.5177 114.108 15.9125 114.108 16.8491C114.108 17.5421 114.53 17.8809 115.115 17.8809C115.861 17.8809 116.556 17.3111 116.556 16.5369V15.5177Z" fill="white"/>
</svg>
