<svg width="182" height="83" viewBox="0 0 182 83" fill="none" xmlns="http://www.w3.org/2000/svg">
<path d="M82.7299 1.34755H91.6965C93.8314 1.34755 95.4666 1.81295 96.6019 2.74386C97.7373 3.67477 98.3049 5.02253 98.3049 6.78725C98.3049 7.75684 98.0139 8.62956 97.4316 9.40519C96.8493 10.1809 96.0051 10.7142 94.8988 11.0051C96.1022 11.2377 97.0726 11.7954 97.81 12.6778C98.5475 13.5601 98.9162 14.7091 98.9162 16.1247C98.9162 17.8506 98.3098 19.2131 97.0968 20.2118C95.8838 21.2106 94.2292 21.7098 92.1331 21.7098H82.7299V1.34755ZM91.6091 9.5506C92.3855 9.5506 93.0113 9.32278 93.4869 8.86702C93.9624 8.41126 94.2001 7.80539 94.2001 7.04905C94.2001 6.2927 93.9624 5.68671 93.4869 5.23096C93.0113 4.7752 92.3855 4.54726 91.6091 4.54726H86.8347V9.5506H91.6091ZM91.2598 18.5101C92.4631 18.5101 93.3559 18.2725 93.9382 17.7974C94.5204 17.3223 94.8116 16.5999 94.8116 15.6303C94.8116 14.6606 94.5204 13.9382 93.9382 13.4632C93.3559 12.988 92.4631 12.7504 91.2598 12.7504H86.8347V18.5101H91.2598ZM119.208 21.7098H114.87L113.531 17.201C113.259 16.2702 112.987 15.5477 112.716 15.0339C112.444 14.52 112.075 14.1273 111.609 13.8559C111.144 13.5844 110.522 13.4486 109.746 13.4486H106.806V21.7098H102.701V1.34755H110.94C113.424 1.34755 115.258 1.83717 116.442 2.81651C117.626 3.79597 118.218 5.32312 118.218 7.39807C118.218 8.73618 117.864 9.81251 117.155 10.6269C116.447 11.4415 115.471 11.9649 114.229 12.1977C115.219 12.5274 115.966 13.0996 116.471 13.9141C116.976 14.7284 117.441 15.8339 117.868 17.2302L119.208 21.7098ZM111.056 10.2488C111.949 10.2488 112.682 10.0112 113.254 9.53602C113.827 9.06099 114.113 8.34826 114.113 7.39807C114.113 6.44788 113.827 5.73514 113.254 5.26011C112.682 4.78495 111.949 4.54726 111.056 4.54726H106.806V10.2488H111.056ZM134.113 16.9683H126.136L124.768 21.7098H120.663L125.641 5.47817C125.991 4.31474 126.359 3.41286 126.748 2.7729C127.136 2.13305 127.597 1.67729 128.131 1.40574C128.664 1.13431 129.329 0.998535 130.125 0.998535C130.92 0.998535 131.58 1.13431 132.104 1.40574C132.628 1.67729 133.089 2.13305 133.487 2.7729C133.885 3.41286 134.259 4.31474 134.608 5.47817L139.586 21.7098H135.481L134.113 16.9683ZM133.211 13.9141L130.765 5.53636C130.629 5.03217 130.416 4.78002 130.125 4.78002C129.834 4.78002 129.62 5.03217 129.484 5.53636L127.039 13.9141H133.211ZM147.883 22.0588C146.486 22.0588 145.316 21.9037 144.375 21.5934C143.434 21.2832 142.643 20.8566 142.003 20.3135C141.362 19.7705 140.702 19.0433 140.023 18.1318L142.788 15.8339C143.584 16.9392 144.356 17.7198 145.103 18.1755C145.85 18.6313 146.777 18.8591 147.883 18.8591C149.416 18.8591 150.532 18.6361 151.231 18.19C151.93 17.7441 152.279 17.0265 152.279 16.0375C152.279 15.5333 152.114 15.1211 151.784 14.8013C151.454 14.4812 150.887 14.1854 150.081 13.9141C149.276 13.6425 148.077 13.342 146.486 13.0122C144.623 12.6244 143.24 11.9311 142.337 10.9323C141.435 9.93371 140.983 8.60041 140.983 6.93267C140.983 5.73033 141.289 4.68315 141.901 3.79103C142.512 2.89903 143.38 2.21052 144.506 1.72584C145.632 1.24093 146.942 0.998535 148.436 0.998535C150.377 0.998535 151.92 1.28454 153.065 1.85668C154.21 2.42882 155.142 3.26745 155.86 4.37293L153.152 6.58353C152.551 5.98248 152.051 5.52178 151.653 5.20192C151.255 4.88182 150.804 4.6346 150.299 4.46003C149.795 4.28558 149.174 4.19836 148.436 4.19836C147.33 4.19836 146.495 4.44076 145.933 4.92555C145.37 5.41034 145.088 6.1085 145.088 7.02001C145.088 7.87322 145.447 8.49861 146.165 8.89606C146.884 9.29375 147.805 9.61855 148.931 9.8707C150.6 10.2197 151.93 10.5785 152.919 10.9469C153.909 11.3153 154.734 11.9067 155.394 12.7213C156.054 13.5358 156.384 14.6509 156.384 16.0665C156.384 18.0834 155.68 19.5863 154.273 20.5754C152.866 21.5644 150.736 22.0588 147.883 22.0588ZM159.936 1.34755H164.04V21.7098H159.936V1.34755ZM175.219 21.7098C172.735 21.7098 170.955 21.1668 169.878 20.0807C168.8 18.9949 168.262 17.424 168.262 15.3684V1.34755H172.367V15.3684C172.367 16.4349 172.599 17.2252 173.065 17.7392C173.531 18.253 174.249 18.5101 175.219 18.5101H181.741V21.7098H175.219Z" fill="white"/>
<path d="M93.1858 36.5713C93.1858 37.9518 92.8372 39.0476 92.1401 39.8581C91.4429 40.6688 90.4351 41.1627 89.1167 41.34C89.421 41.682 89.8395 41.9481 90.3717 42.1379C90.9041 42.328 91.5189 42.4357 92.2162 42.461V43.6579C91.0752 43.6326 90.1404 43.4363 89.4116 43.069C88.6826 42.7016 88.1344 42.1508 87.7667 41.416C86.1315 41.3781 84.8829 40.9442 84.0209 40.1146C83.1589 39.285 82.7281 38.1038 82.7281 36.5713V32.5435C82.7281 30.973 83.1781 29.7728 84.078 28.9432C84.978 28.1135 86.2709 27.6988 87.957 27.6988C89.6429 27.6988 90.9358 28.1135 91.8358 28.9432C92.7358 29.7728 93.1858 30.973 93.1858 32.5435V36.5713ZM91.8168 32.5435C91.8168 31.3402 91.4841 30.4156 90.8186 29.7697C90.1531 29.1236 89.1992 28.8007 87.957 28.8007C86.7146 28.8007 85.7608 29.1236 85.0952 29.7697C84.4298 30.4156 84.097 31.3402 84.097 32.5435V36.5713C84.097 37.7746 84.4298 38.6991 85.0952 39.3452C85.7608 39.9912 86.7146 40.3141 87.957 40.3141C89.1992 40.3141 90.1531 39.9912 90.8186 39.3452C91.4841 38.6991 91.8168 37.7746 91.8168 36.5713V32.5435ZM100.792 41.416C99.2197 41.416 97.987 41.0773 97.0933 40.3997C96.1995 39.722 95.7527 38.7879 95.7527 37.5973V27.9078H97.1218V37.5973C97.1218 38.4458 97.4451 39.1108 98.0915 39.5922C98.738 40.0735 99.638 40.3141 100.792 40.3141C101.945 40.3141 102.845 40.0735 103.492 39.5922C104.138 39.1108 104.461 38.4458 104.461 37.5973V27.9078H105.83V37.5973C105.83 38.7879 105.383 39.722 104.49 40.3997C103.596 41.0773 102.363 41.416 100.792 41.416ZM112.733 41.207C111.249 41.207 110.15 40.8809 109.434 40.2286C108.717 39.5763 108.359 38.579 108.359 37.2363V31.8786C108.359 30.5359 108.717 29.5386 109.434 28.8862C110.15 28.2339 111.249 27.9078 112.733 27.9078H117.315V29.0096H112.733C111.706 29.0096 110.948 29.244 110.46 29.7126C109.972 30.1814 109.728 30.9033 109.728 31.8786V34.0065H116.345V35.1084H109.728V37.2363C109.728 38.2116 109.972 38.9335 110.46 39.4021C110.948 39.8708 111.706 40.1051 112.733 40.1051H117.429V41.207H112.733ZM124.807 27.9078H129.541C130.936 27.9078 132.042 28.1231 132.859 28.5537C133.677 28.9845 134.269 29.6811 134.637 30.6436C135.005 31.6063 135.188 32.9109 135.188 34.5574C135.188 36.2166 135.008 37.5245 134.646 38.4807C134.285 39.437 133.696 40.1305 132.878 40.5611C132.061 40.9918 130.948 41.207 129.541 41.207H124.807V27.9078ZM129.541 40.1051C130.593 40.1051 131.43 39.9248 132.051 39.5636C132.672 39.2026 133.122 38.62 133.401 37.8158C133.68 37.0114 133.819 35.9317 133.819 34.5764C133.819 33.2211 133.677 32.1382 133.392 31.3276C133.106 30.517 132.653 29.9281 132.032 29.5607C131.411 29.1934 130.581 29.0096 129.541 29.0096H126.176V40.1051H129.541ZM144.829 36.9323H138.82L137.508 41.207H136.139L139.581 30.0925C139.86 29.1934 140.161 28.5695 140.484 28.2213C140.807 27.8729 141.254 27.6988 141.824 27.6988C142.395 27.6988 142.845 27.8729 143.174 28.2213C143.504 28.5695 143.808 29.1934 144.087 30.0925L147.529 41.207H146.14L144.829 36.9323ZM144.505 35.8683L142.737 30.1117C142.598 29.6811 142.464 29.3833 142.338 29.2186C142.211 29.0539 142.04 28.9717 141.824 28.9717C141.622 28.9717 141.457 29.0539 141.33 29.2186C141.203 29.3833 141.07 29.6811 140.931 30.1117L139.162 35.8683H144.505ZM142.813 23.6709H144.22L142.338 26.4259H141.292L142.813 23.6709Z" fill="white"/>
<path d="M91.1414 68.1067C88.4049 68.1067 86.3185 67.4813 84.8822 66.2305C83.4461 64.9797 82.7281 63.1325 82.7281 60.689V54.4641C82.7281 52.0205 83.4461 50.1733 84.8822 48.9226C86.3185 47.6718 88.4049 47.0464 91.1414 47.0464C93.0435 47.0464 94.6009 47.3614 95.814 47.9918C97.0269 48.622 97.9925 49.5675 98.7106 50.8279L95.7702 52.8641C95.1687 51.9332 94.5427 51.2642 93.8926 50.857C93.2423 50.4498 92.3252 50.2461 91.1414 50.2461C89.647 50.2461 88.5552 50.6001 87.8664 51.3078C87.1773 52.0156 86.8328 53.0677 86.8328 54.4641V60.689C86.8328 62.0852 87.1773 63.1373 87.8664 63.8451C88.5552 64.553 89.647 64.9069 91.1414 64.9069C92.4223 64.9069 93.417 64.6888 94.1254 64.2524C94.8339 63.8161 95.4694 63.1131 96.0322 62.1434L98.9435 64.296C98.3224 65.188 97.6819 65.9056 97.0221 66.4487C96.3622 66.9917 95.5616 67.4037 94.6203 67.685C93.679 67.9661 92.5195 68.1067 91.1414 68.1067ZM108.463 67.7577C105.882 67.7577 104.028 67.2147 102.903 66.1286C101.777 65.0428 101.214 63.4719 101.214 61.4162V53.7369C101.214 51.6812 101.777 50.1103 102.903 49.0245C104.028 47.9384 105.882 47.3954 108.463 47.3954H115.275V50.5951H108.463C107.396 50.5951 106.605 50.8474 106.091 51.3515C105.576 51.8558 105.319 52.6508 105.319 53.7369V55.9766H113.995V59.1764H105.319V61.4162C105.319 62.4828 105.576 63.2731 106.091 63.7869C106.605 64.3009 107.396 64.5578 108.463 64.5578H115.334V67.7577H108.463ZM135.334 67.7577H130.996L129.657 63.2489C129.385 62.318 129.113 61.5956 128.842 61.0816C128.57 60.5678 128.201 60.1752 127.735 59.9036C127.27 59.6322 126.649 59.4963 125.872 59.4963H122.932V67.7577H118.827V47.3954H127.066C129.55 47.3954 131.384 47.885 132.568 48.8644C133.752 49.8437 134.344 51.3709 134.344 53.4459C134.344 54.7839 133.99 55.8604 133.281 56.6747C132.573 57.4892 131.598 58.0128 130.356 58.2455C131.345 58.5753 132.092 59.1474 132.597 59.9618C133.102 60.7762 133.568 61.8817 133.995 63.278L135.334 67.7577ZM127.182 56.2966C128.075 56.2966 128.808 56.059 129.38 55.5839C129.953 55.1088 130.239 54.3961 130.239 53.4459C130.239 52.4957 129.953 51.7829 129.38 51.3078C128.808 50.8327 128.075 50.5951 127.182 50.5951H122.932V56.2966H127.182ZM142.641 50.5951H136.498V47.3954H152.888V50.5951H146.746V67.7577H142.641V50.5951ZM162.233 68.1067C159.536 68.1067 157.474 67.4813 156.047 66.2305C154.621 64.9797 153.907 63.1325 153.907 60.689V54.4641C153.907 52.0205 154.621 50.1733 156.047 48.9226C157.474 47.6718 159.536 47.0464 162.233 47.0464C164.931 47.0464 166.993 47.6718 168.42 48.9226C169.846 50.1733 170.559 52.0205 170.559 54.4641V60.689C170.559 63.1325 169.846 64.9797 168.42 66.2305C166.993 67.4813 164.931 68.1067 162.233 68.1067ZM162.233 64.9069C163.592 64.9069 164.635 64.5433 165.363 63.8161C166.091 63.0888 166.455 62.0465 166.455 60.689V54.4641C166.455 53.1065 166.091 52.0642 165.363 51.337C164.635 50.6097 163.592 50.2461 162.233 50.2461C160.875 50.2461 159.832 50.6097 159.104 51.337C158.376 52.0642 158.012 53.1065 158.012 54.4641V60.689C158.012 62.0465 158.376 63.0888 159.104 63.8161C159.832 64.5433 160.875 64.9069 162.233 64.9069Z" fill="white"/>
<path d="M84.9806 80.4293C84.1957 80.4293 83.6242 80.261 83.2657 79.9245C82.9074 79.5879 82.7281 79.0925 82.7281 78.438V75.9374C82.7281 75.2827 82.9074 74.7874 83.2657 74.4507C83.6242 74.1142 84.1957 73.946 84.9806 73.946H87.1681V74.8073H84.9806C84.585 74.8073 84.2932 74.8985 84.1046 75.0805C83.9162 75.2628 83.822 75.5483 83.822 75.9374V76.7616H86.7418V77.6136H83.822V78.438C83.822 78.827 83.9162 79.1125 84.1046 79.2946C84.2932 79.4768 84.585 79.5679 84.9806 79.5679H87.2053V80.4293H84.9806ZM90.9813 73.946H93.3635C94.0742 73.946 94.6366 74.051 95.0506 74.261C95.4646 74.4708 95.7643 74.8089 95.9496 75.2751C96.1351 75.7412 96.2278 76.3787 96.2278 77.1877C96.2278 77.9965 96.1351 78.6341 95.9496 79.1002C95.7643 79.5664 95.4646 79.9044 95.0506 80.1143C94.6366 80.3243 94.0742 80.4293 93.3635 80.4293H90.9813V73.946ZM93.3635 79.5679C93.8023 79.5679 94.15 79.4907 94.4063 79.3363C94.6628 79.182 94.8482 78.9335 94.9624 78.5908C95.0768 78.2482 95.134 77.7804 95.134 77.1877C95.134 76.5949 95.0768 76.1271 94.9624 75.7845C94.8482 75.4418 94.6628 75.1933 94.4063 75.0389C94.15 74.8846 93.8023 74.8073 93.3635 74.8073H92.0751V79.5679H93.3635ZM102.451 80.5403C101.635 80.5403 101.01 80.3659 100.574 80.0171C100.138 79.6682 99.9204 79.182 99.9204 78.5584V73.946H101.014V78.5584C101.014 78.9288 101.136 79.2097 101.38 79.4012C101.624 79.5926 101.981 79.6883 102.451 79.6883C102.921 79.6883 103.277 79.5926 103.521 79.4012C103.766 79.2097 103.888 78.9288 103.888 78.5584V73.946H104.981V78.5584C104.981 79.182 104.764 79.6682 104.328 80.0171C103.892 80.3659 103.267 80.5403 102.451 80.5403ZM111.39 80.5403C110.525 80.5403 109.864 80.3398 109.406 79.9385C108.949 79.537 108.72 78.9505 108.72 78.1787V76.1966C108.72 75.4249 108.946 74.8381 109.397 74.4368C109.848 74.0356 110.5 73.8348 111.353 73.8348C111.94 73.8348 112.425 73.9305 112.808 74.122C113.191 74.3134 113.5 74.6035 113.735 74.9925L112.957 75.539C112.759 75.2426 112.541 75.0281 112.303 74.8953C112.065 74.7626 111.752 74.6961 111.362 74.6961C110.33 74.6961 109.814 75.1963 109.814 76.1966V78.1787C109.814 79.1789 110.336 79.679 111.381 79.679C111.795 79.679 112.129 79.608 112.382 79.466C112.635 79.324 112.855 79.1017 113.04 78.7992L113.819 79.3734C113.528 79.7809 113.201 80.0773 112.836 80.2626C112.471 80.4477 111.989 80.5403 111.39 80.5403ZM121.154 78.7251H118.494L117.984 80.4293H116.89L118.512 75.1779C118.618 74.832 118.727 74.5635 118.842 74.372C118.956 74.1807 119.09 74.0432 119.245 73.9599C119.399 73.8766 119.594 73.8348 119.829 73.8348C120.057 73.8348 120.249 73.8766 120.403 73.9599C120.558 74.0432 120.694 74.1807 120.811 74.372C120.929 74.5635 121.04 74.832 121.145 75.1779L122.758 80.4293H121.664L121.154 78.7251ZM120.913 77.9101L120.107 75.1963C120.07 75.0728 120.031 74.9833 119.991 74.9277C119.951 74.8722 119.897 74.8444 119.829 74.8444C119.761 74.8444 119.705 74.8722 119.662 74.9277C119.619 74.9833 119.578 75.0728 119.541 75.1963L118.735 77.9101H120.913ZM130.668 79.3734C130.402 79.75 130.107 80.031 129.783 80.2162C129.458 80.4015 129.043 80.5065 128.536 80.531L128.462 80.7905C128.987 80.846 129.25 81.1208 129.25 81.6147C129.25 81.9049 129.146 82.1226 128.939 82.2677C128.732 82.4129 128.434 82.4854 128.045 82.4854C127.699 82.4854 127.384 82.4144 127.099 82.2724L127.275 81.7074C127.498 81.8185 127.717 81.8741 127.934 81.8741C128.119 81.8741 128.255 81.8541 128.341 81.8139C128.428 81.7738 128.471 81.7074 128.471 81.6147C128.471 81.5159 128.434 81.4373 128.36 81.3785C128.286 81.32 128.141 81.2906 127.924 81.2906C127.875 81.2906 127.776 81.2967 127.628 81.309L127.813 80.5219C127.084 80.46 126.528 80.2316 126.145 79.8364C125.761 79.4413 125.57 78.8887 125.57 78.1787V76.1966C125.57 75.4249 125.795 74.8381 126.247 74.4368C126.698 74.0356 127.35 73.8348 128.202 73.8348C128.789 73.8348 129.274 73.9305 129.658 74.122C130.041 74.3134 130.35 74.6035 130.585 74.9925L129.806 75.539C129.608 75.2426 129.39 75.0281 129.152 74.8953C128.914 74.7626 128.601 74.6961 128.212 74.6961C127.18 74.6961 126.664 75.1963 126.664 76.1966V78.1787C126.664 79.1789 127.186 79.679 128.23 79.679C128.644 79.679 128.978 79.608 129.231 79.466C129.485 79.324 129.704 79.1017 129.889 78.7992L130.668 79.3734ZM138.003 78.7251H135.343L134.833 80.4293H133.74L135.362 75.1779C135.467 74.832 135.577 74.5635 135.691 74.372C135.805 74.1807 135.94 74.0432 136.094 73.9599C136.249 73.8766 136.443 73.8348 136.678 73.8348C136.907 73.8348 137.098 73.8766 137.253 73.9599C137.407 74.0432 137.543 74.1807 137.661 74.372C137.778 74.5635 137.889 74.832 137.994 75.1779L139.607 80.4293H138.513L138.003 78.7251ZM137.763 77.9101L136.956 75.1963C136.919 75.0728 136.88 74.9833 136.84 74.9277C136.8 74.8722 136.746 74.8444 136.678 74.8444C136.61 74.8444 136.554 74.8722 136.511 74.9277C136.468 74.9833 136.428 75.0728 136.391 75.1963L135.584 77.9101H137.763ZM135.13 73.2791C135.142 72.9333 135.234 72.6462 135.403 72.4178C135.573 72.1894 135.819 72.075 136.14 72.075C136.264 72.075 136.377 72.0936 136.479 72.1306C136.581 72.1677 136.7 72.2233 136.836 72.2973C137.033 72.4024 137.185 72.4549 137.29 72.4549C137.37 72.4549 137.43 72.4193 137.471 72.3483C137.511 72.2773 137.54 72.1616 137.559 72.001H138.226C138.195 72.3406 138.098 72.6261 137.934 72.8577C137.77 73.0892 137.555 73.2051 137.29 73.2051C137.166 73.2051 137.053 73.1865 136.951 73.1495C136.849 73.1125 136.731 73.0568 136.595 72.9828C136.397 72.8778 136.245 72.8253 136.14 72.8253C136.048 72.8253 135.975 72.8608 135.923 72.9318C135.87 73.0028 135.828 73.1187 135.797 73.2791H135.13ZM145.135 80.5403C144.289 80.5403 143.64 80.3398 143.188 79.9385C142.738 79.537 142.512 78.9505 142.512 78.1787V76.1966C142.512 75.4249 142.738 74.8381 143.188 74.4368C143.64 74.0356 144.289 73.8348 145.135 73.8348C145.982 73.8348 146.629 74.0356 147.077 74.4368C147.525 74.8381 147.749 75.4249 147.749 76.1966V78.1787C147.749 78.9505 147.525 79.537 147.077 79.9385C146.629 80.3398 145.982 80.5403 145.135 80.5403ZM145.135 79.679C145.623 79.679 145.999 79.551 146.261 79.2946C146.524 79.0385 146.655 78.6664 146.655 78.1787V76.1966C146.655 75.7089 146.524 75.3368 146.261 75.0805C145.999 74.8243 145.623 74.6961 145.135 74.6961C144.641 74.6961 144.262 74.8243 144 75.0805C143.737 75.3368 143.606 75.7089 143.606 76.1966V78.1787C143.606 78.6664 143.737 79.0385 144 79.2946C144.262 79.551 144.641 79.679 145.135 79.679Z" fill="#008C33"/>
<path d="M38.8589 71.5276C57.3267 71.5276 72.2978 56.5639 72.2978 38.1054C72.2978 19.6468 57.3267 4.68311 38.8589 4.68311C20.3911 4.68311 5.41992 19.6468 5.41992 38.1054C5.41992 56.5639 20.3911 71.5276 38.8589 71.5276Z" fill="url(#paint0_linear)"/>
<path fill-rule="evenodd" clip-rule="evenodd" d="M38.8591 5.73145C45.2662 5.73079 51.5295 7.6292 56.8571 11.1866C62.1846 14.744 66.3371 19.8006 68.7892 25.7168C71.2414 31.6331 71.8832 38.1433 70.6334 44.4242C69.3836 50.705 66.2984 56.4744 61.7679 61.0026C57.2374 65.5308 51.4652 68.6145 45.1812 69.8636C38.8972 71.1128 32.3837 70.4714 26.4645 68.0204C20.5453 65.5695 15.4862 61.4191 11.927 56.0942C8.36785 50.7693 6.46849 44.5091 6.46915 38.1052C6.47002 29.5194 9.88281 21.2855 15.9569 15.2145C22.031 9.1434 30.269 5.73232 38.8591 5.73145Z" fill="url(#paint1_linear)"/>
<path fill-rule="evenodd" clip-rule="evenodd" d="M5.66464 34.0732C9.42384 35.803 11.5516 31.6653 17.7 38.6607C21.6346 43.139 27.9915 46.7674 28.3092 53.0648C28.5772 58.3568 33.5012 62.263 32.9916 67.8361C32.9122 68.7225 32.4125 69.7181 31.7275 70.7699C35.6933 71.6294 39.7819 71.765 43.796 71.1701C46.1124 67.6608 47.6809 66.0633 51.7876 65.3092C63.128 63.2288 60.1035 58.0327 66.2453 48.2094C68.4558 44.677 70.8086 41.9583 72.2745 39.2792C72.2745 38.8922 72.2977 38.5052 72.2977 38.1149C72.3058 33.7726 71.465 29.4706 69.8224 25.4505C68.2241 24.0746 65.9507 22.8244 62.7144 21.8751C56.7579 20.1288 51.8405 19.8906 48.9417 10.3254C46.7477 3.08194 41.3108 9.33311 33.4218 5.12598C26.2866 6.30461 19.7256 9.7622 14.7216 14.9808C9.71753 20.1994 6.53989 26.898 5.66464 34.0732Z" fill="#023C72"/>
<path fill-rule="evenodd" clip-rule="evenodd" d="M30.1722 62.1508C28.9975 62.1508 28.4978 61.9127 27.2767 59.6934L18.3652 43.523C17.7861 42.5308 17.068 41.3268 16.5319 40.2916C16.2738 39.7922 13.2691 35.2278 16.0719 35.2278C17.3195 35.2278 24.8643 41.006 26.4792 42.0843C29.4376 44.0522 30.5561 45.6067 33.8619 42.415L61.4039 16.213C61.7349 15.8823 62.2147 15.3597 62.7905 14.7842C64.2209 16.2416 65.5147 17.827 66.6556 19.5205L32.429 61.0594C31.6547 62.0152 31.3403 62.1674 30.1722 62.1508Z" fill="#023C72"/>
<path fill-rule="evenodd" clip-rule="evenodd" d="M8.05058 12.0189C7.79247 16.8743 -6.44349 21.9017 3.55676 30.8055C8.60983 35.3037 10.3538 28.5862 17.4353 36.6465C21.3732 41.1249 27.7301 44.7532 28.0478 51.0507C28.3158 56.3427 33.2365 60.2488 32.7302 65.8219C32.482 68.5341 28.3224 72.2451 27.0054 75.5162C26.4792 76.8392 28.2165 78.0861 30.2748 79.0288C36.2644 81.7674 35.9004 80.6296 39.4544 75.3905C44.9608 67.3037 45.5102 64.3865 51.5262 63.2818C62.8666 61.2014 59.8421 56.0053 65.9839 46.182C69.7497 40.1657 73.9258 36.5076 73.4261 31.3611C73.0952 27.9445 71.8642 22.6095 62.4431 19.8544C56.4866 18.108 51.5725 17.8699 48.6737 8.30459C46.4731 1.0281 41.013 7.34211 33.0876 3.07214C25.9729 -0.748021 26.3403 -1.31691 18.4446 3.1449C16.7735 4.08423 14.0401 3.31028 12.0447 3.69725C7.89837 4.49767 8.25244 8.18222 8.05058 12.0189Z" fill="url(#paint2_linear)"/>
<path fill-rule="evenodd" clip-rule="evenodd" d="M9.11281 12.0759C9.04001 13.4882 8.13661 14.7484 7.24314 15.7836C6.2504 16.9446 5.09881 17.9964 4.0465 19.1176C2.88168 20.3579 1.5514 21.929 1.17416 23.6257C0.59837 26.2056 2.47135 28.415 4.26491 30.0125C5.52569 31.1337 6.51513 31.5538 8.18625 31.4479C9.71177 31.3487 10.8336 31.1503 12.3657 31.5968C14.6821 32.2583 16.6676 34.1766 18.2361 35.9461C22.27 40.5336 28.7658 44.1851 29.1199 50.9985C29.1606 51.7064 29.285 52.407 29.4906 53.0856C29.9373 54.6103 30.7116 56.0623 31.4396 57.4614C32.846 60.1802 34.087 62.7534 33.7991 65.9187C33.5112 69.0839 29.2688 72.7486 27.9948 75.9139C27.9816 75.943 27.9748 75.9746 27.975 76.0065C27.975 76.2744 28.4382 76.668 28.6368 76.8334C29.2769 77.3281 29.9761 77.7414 30.7182 78.0638C31.5886 78.464 34.1631 79.7175 35.1459 79.3306C35.6257 79.1387 36.089 78.5103 36.3802 78.1068C37.1446 77.0451 37.8329 75.8941 38.5742 74.7993C39.3981 73.5887 40.1957 72.3683 40.9832 71.1379C41.6087 70.1655 42.2242 69.1865 42.8694 68.2273C43.8622 66.7323 44.9741 65.2505 46.4433 64.169C47.9126 63.0874 49.5639 62.5682 51.3343 62.244C54.0974 61.7347 57.1253 60.921 58.8923 58.5595C59.9777 57.1141 60.6561 55.1197 61.3014 53.4362C62.3022 50.7231 63.568 48.1153 65.0805 45.6503C66.4935 43.3913 68.1017 41.3109 69.6041 39.1213C70.7027 37.5238 71.8311 35.7212 72.2514 33.8029C72.4142 33.0425 72.4577 32.2614 72.3804 31.4876C72.1819 29.4634 71.7186 27.6774 70.4942 26.0038C68.5451 23.3181 65.2591 21.8033 62.1585 20.897C59.8222 20.2124 57.3503 19.7129 55.1497 18.6512C50.9372 16.6204 48.9748 12.9359 47.6512 8.62622C47.3368 7.58436 46.8305 6.36389 45.7616 5.90084C45.1257 5.67372 44.4502 5.57808 43.7761 5.6197C42.7834 5.6197 41.7907 5.73547 40.7979 5.77516C37.8197 5.88761 35.2617 5.44441 32.6012 4.02218C31.2345 3.31438 29.8843 2.50404 28.5077 1.84254C27.7625 1.4348 26.9457 1.17428 26.102 1.0752C25.218 1.07362 24.3454 1.27385 23.5506 1.66063C21.9817 2.38105 20.4518 3.18368 18.9675 4.06518C17.7001 4.7796 16.1117 4.72668 14.7053 4.66714C13.8857 4.59975 13.0613 4.62193 12.2466 4.73329C11.3862 4.90198 10.592 5.23603 10.0758 5.9703C9.55955 6.70456 9.41394 7.62405 9.31136 8.45423C9.17568 9.64823 9.17569 10.8687 9.11281 12.0693V12.0759Z" fill="url(#paint3_linear)"/>
<path fill-rule="evenodd" clip-rule="evenodd" d="M16.0917 35.2275C17.3988 35.287 24.8709 41.0123 26.4792 42.0839C29.4375 44.0519 30.556 45.6064 33.8619 42.4147L58.654 18.8091C59.8585 19.163 61.1259 19.4706 62.4463 19.8609C63.4787 20.1591 64.4911 20.5225 65.4775 20.949L32.429 61.059C32.3033 61.2112 32.1907 61.3435 32.0981 61.4559C30.8406 57.9467 28.2396 54.8409 28.0477 51.0506C27.7168 44.7663 21.3731 41.1281 17.4352 36.6464C16.9654 36.1106 16.5186 35.6542 16.0917 35.2275Z" fill="#01742B"/>
<path fill-rule="evenodd" clip-rule="evenodd" d="M29.0372 61.1126C27.8624 61.0928 27.3628 60.8745 26.145 58.6552L17.2302 42.4815C16.6511 41.4893 15.933 40.2887 15.3969 39.2534C15.1388 38.754 12.1341 34.1896 14.9369 34.1896C16.1845 34.1896 23.7293 39.9678 25.3442 41.0428C28.3026 43.0273 29.4211 44.5685 32.7269 41.3735L60.2689 15.1484C60.9903 14.4274 62.4563 12.7571 64.0248 11.6689C67.2446 9.43634 69.8622 11.6854 68.6278 14.3844C68.1778 15.3766 67.3042 16.2961 66.6424 17.1329L31.3073 60.0212C30.5197 60.977 30.2053 61.1292 29.0372 61.1126Z" fill="url(#paint4_linear)"/>
<path fill-rule="evenodd" clip-rule="evenodd" d="M14.8902 35.2541H14.8174C14.8792 35.7352 15.0154 36.2039 15.2212 36.6432C15.4198 37.0862 15.6407 37.519 15.883 37.9398C16.0385 38.211 16.2139 38.4888 16.3595 38.7633C16.9188 39.8449 17.5574 40.8933 18.1663 41.9484V41.9683L27.0812 58.1419C27.3062 58.5455 27.9879 59.8188 28.471 59.9842C28.6625 60.0316 28.8595 60.0527 29.0567 60.0471C29.9105 60.0471 29.9403 60.0107 30.4896 59.3426L65.7949 16.4807C66.3939 15.72 67.2575 14.827 67.658 13.9538C67.8995 13.4279 68.0087 12.7366 67.605 12.257C66.8671 11.3773 65.368 12.0421 64.6268 12.5547C63.2435 13.5139 62.1945 14.7344 61.0198 15.9085L60.9999 15.9284L33.4579 42.1535C32.2633 43.2913 30.7642 44.4687 29.0071 44.2372C27.4948 44.0487 25.9991 42.7588 24.7515 41.922C24.0897 41.4689 23.4047 40.9694 22.7462 40.4898C21.7534 39.7721 20.7607 39.0544 19.7679 38.3466C18.7752 37.6388 17.6964 36.8913 16.6309 36.2165C16.0824 35.8415 15.4996 35.5192 14.8902 35.2541Z" fill="url(#paint5_linear)"/>
<defs>
<linearGradient id="paint0_linear" x1="56.8825" y1="11.6604" x2="19.7422" y2="66.8875" gradientUnits="userSpaceOnUse">
<stop offset="0.1875" stop-color="#003F7E"/>
<stop offset="0.915393" stop-color="#045CA8"/>
</linearGradient>
<linearGradient id="paint1_linear" x1="56.3224" y1="12.4905" x2="20.3435" y2="65.9906" gradientUnits="userSpaceOnUse">
<stop stop-color="#003F7E"/>
<stop offset="0.915393" stop-color="#045CA8"/>
</linearGradient>
<linearGradient id="paint2_linear" x1="36.7335" y1="0" x2="36.7335" y2="80.4701" gradientUnits="userSpaceOnUse">
<stop offset="0.354167" stop-color="#008434"/>
<stop offset="0.473958" stop-color="#008434"/>
<stop offset="0.604167" stop-color="#008434"/>
<stop offset="0.864583" stop-color="#00A53F"/>
</linearGradient>
<linearGradient id="paint3_linear" x1="36.7428" y1="1.0752" x2="36.7428" y2="79.4038" gradientUnits="userSpaceOnUse">
<stop offset="0.140625" stop-color="#00AA49"/>
<stop offset="0.354167" stop-color="#008434"/>
<stop offset="0.473958" stop-color="#008434"/>
<stop offset="0.604167" stop-color="#008434"/>
<stop offset="0.864583" stop-color="#00A53F"/>
</linearGradient>
<linearGradient id="paint4_linear" x1="68.0535" y1="19.2767" x2="36.6613" y2="64.2095" gradientUnits="userSpaceOnUse">
<stop stop-color="#FFEA00"/>
<stop offset="1" stop-color="#FFCC00"/>
</linearGradient>
<linearGradient id="paint5_linear" x1="41.3457" y1="11.8281" x2="41.3457" y2="60.048" gradientUnits="userSpaceOnUse">
<stop offset="0.171875" stop-color="#FFE834"/>
<stop offset="0.385417" stop-color="#FFD632"/>
<stop offset="0.485436" stop-color="#FFD632"/>
<stop offset="0.583333" stop-color="#FFD632"/>
<stop offset="0.609375" stop-color="#FFD632"/>
<stop offset="0.817708" stop-color="#FFEB3F"/>
</linearGradient>
</defs>
</svg>
