<svg width="119" height="55" viewBox="0 0 119 55" fill="none" xmlns="http://www.w3.org/2000/svg">
<path d="M54.1704 0.882338H60.0415C61.4393 0.882338 62.51 1.18707 63.2534 1.79661C63.9969 2.40615 64.3685 3.28863 64.3685 4.44413C64.3685 5.079 64.178 5.65044 63.7967 6.1583C63.4154 6.66624 62.8627 7.01538 62.1383 7.20589C62.9262 7.35821 63.5616 7.72337 64.0445 8.30112C64.5274 8.87887 64.7688 9.63119 64.7688 10.5581C64.7688 11.6882 64.3717 12.5803 63.5775 13.2342C62.7833 13.8882 61.6999 14.2151 60.3274 14.2151H54.1704V0.882338ZM59.9842 6.25351C60.4926 6.25351 60.9024 6.10434 61.2138 5.80592C61.5252 5.5075 61.6808 5.11079 61.6808 4.61555C61.6808 4.12031 61.5252 3.72352 61.2138 3.4251C60.9024 3.12668 60.4926 2.97744 59.9842 2.97744H56.8581V6.25351H59.9842ZM59.7555 12.12C60.5434 12.12 61.128 11.9644 61.5093 11.6533C61.8905 11.3423 62.0812 10.8692 62.0812 10.2343C62.0812 9.5994 61.8905 9.12641 61.5093 8.81537C61.128 8.50425 60.5434 8.34869 59.7555 8.34869H56.8581V12.12H59.7555ZM78.0552 14.2151H75.2149L74.338 11.2628C74.1601 10.6534 73.9822 10.1803 73.8044 9.84387C73.6264 9.50734 73.3849 9.25026 73.0799 9.07253C72.775 8.89472 72.3682 8.80582 71.86 8.80582H69.9347V14.2151H67.247V0.882338H72.6415C74.2682 0.882338 75.4691 1.20293 76.2443 1.84418C77.0194 2.48551 77.407 3.48545 77.407 4.84408C77.407 5.72025 77.1751 6.42501 76.7112 6.95827C76.2474 7.4916 75.6088 7.83436 74.7955 7.98676C75.4436 8.20267 75.9329 8.57729 76.2633 9.11063C76.5938 9.64382 76.8987 10.3677 77.1783 11.2819L78.0552 14.2151ZM72.7177 6.71065C73.3023 6.71065 73.782 6.55509 74.157 6.24397C74.5318 5.93292 74.7192 5.46624 74.7192 4.84408C74.7192 4.22192 74.5318 3.75524 74.157 3.44419C73.782 3.13307 73.3023 2.97744 72.7177 2.97744H69.9347V6.71065H72.7177ZM87.8149 11.1104H82.5919L81.696 14.2151H79.0082L82.2679 3.58698C82.4966 2.82519 82.738 2.23466 82.9922 1.81562C83.2464 1.39666 83.5482 1.09824 83.8977 0.920439C84.2471 0.742711 84.6823 0.653809 85.2034 0.653809C85.7244 0.653809 86.1565 0.742711 86.4996 0.920439C86.8427 1.09824 87.1446 1.39666 87.4051 1.81562C87.6656 2.23466 87.9102 2.82519 88.139 3.58698L91.3986 14.2151H88.7108L87.8149 11.1104ZM87.224 9.11063L85.6228 3.62508C85.5339 3.29494 85.3941 3.12984 85.2034 3.12984C85.0128 3.12984 84.873 3.29494 84.784 3.62508L83.1829 9.11063H87.224ZM96.8312 14.4436C95.9163 14.4436 95.1507 14.342 94.5343 14.1389C93.918 13.9358 93.4001 13.6564 92.9808 13.3008C92.5614 12.9453 92.1292 12.4691 91.6845 11.8723L93.4954 10.3677C94.0164 11.0914 94.5215 11.6025 95.0108 11.9009C95.5001 12.1994 96.1069 12.3485 96.8312 12.3485C97.8351 12.3485 98.5659 12.2025 99.0234 11.9104C99.4809 11.6185 99.7096 11.1485 99.7096 10.501C99.7096 10.1708 99.6016 9.90098 99.3856 9.69154C99.1695 9.48194 98.7978 9.28828 98.2704 9.11063C97.7431 8.93283 96.9583 8.73601 95.9163 8.5201C94.6963 8.26617 93.7909 7.81219 93.1999 7.15824C92.609 6.50436 92.3135 5.63135 92.3135 4.53935C92.3135 3.75208 92.5136 3.06642 92.914 2.48228C93.3143 1.89821 93.883 1.44739 94.62 1.13003C95.3571 0.812525 96.2149 0.653809 97.1934 0.653809C98.4643 0.653809 99.4745 0.841081 100.224 1.2157C100.974 1.59033 101.584 2.13944 102.054 2.86329L100.281 4.31074C99.8875 3.91719 99.5603 3.61553 99.2998 3.40609C99.0393 3.1965 98.7438 3.03463 98.4133 2.92032C98.083 2.8061 97.6763 2.74898 97.1934 2.74898C96.4691 2.74898 95.9226 2.9077 95.5541 3.22513C95.1856 3.54256 95.0013 3.9997 95.0013 4.59654C95.0013 5.1552 95.2364 5.56469 95.7065 5.82493C96.1767 6.08533 96.7804 6.298 97.5174 6.46311C98.6103 6.69164 99.4809 6.92655 100.129 7.16778C100.777 7.40901 101.317 7.79626 101.749 8.3296C102.181 8.86294 102.397 9.59309 102.397 10.52C102.397 11.8406 101.937 12.8247 101.015 13.4723C100.094 14.1199 98.6994 14.4436 96.8312 14.4436ZM104.723 0.882338H107.411V14.2151H104.723V0.882338ZM114.73 14.2151C113.104 14.2151 111.938 13.8596 111.233 13.1484C110.527 12.4374 110.175 11.4089 110.175 10.0629V0.882338H112.862V10.0629C112.862 10.7612 113.015 11.2787 113.32 11.6152C113.625 11.9517 114.095 12.12 114.73 12.12H119V14.2151H114.73Z" fill="#02498C"/>
<path d="M61.0161 23.946C61.0161 24.85 60.7878 25.5674 60.3313 26.0982C59.8748 26.629 59.2149 26.9524 58.3517 27.0685C58.5509 27.2924 58.8249 27.4667 59.1734 27.591C59.522 27.7154 59.9246 27.7859 60.3811 27.8025V28.5862C59.6341 28.5697 59.022 28.4411 58.5447 28.2006C58.0674 27.96 57.7085 27.5994 57.4677 27.1183C56.3971 27.0934 55.5795 26.8093 55.0151 26.2661C54.4506 25.7229 54.1685 24.9495 54.1685 23.946V21.3088C54.1685 20.2804 54.4632 19.4945 55.0524 18.9513C55.6417 18.4081 56.4883 18.1365 57.5923 18.1365C58.6962 18.1365 59.5428 18.4081 60.1321 18.9513C60.7214 19.4945 61.0161 20.2804 61.0161 21.3088V23.946ZM60.1196 21.3088C60.1196 20.5209 59.9018 19.9154 59.4661 19.4925C59.0303 19.0695 58.4057 18.858 57.5923 18.858C56.7788 18.858 56.1543 19.0695 55.7185 19.4925C55.2828 19.9154 55.0649 20.5209 55.0649 21.3088V23.946C55.0649 24.7339 55.2828 25.3393 55.7185 25.7623C56.1543 26.1853 56.7788 26.3967 57.5923 26.3967C58.4057 26.3967 59.0303 26.1853 59.4661 25.7623C59.9018 25.3393 60.1196 24.7339 60.1196 23.946V21.3088ZM65.9961 27.1183C64.9669 27.1183 64.1597 26.8964 63.5746 26.4528C62.9893 26.009 62.6968 25.3974 62.6968 24.6178V18.2734H63.5932V24.6178C63.5932 25.1734 63.8049 25.6089 64.2282 25.9241C64.6515 26.2392 65.2408 26.3967 65.9961 26.3967C66.7514 26.3967 67.3407 26.2392 67.764 25.9241C68.1873 25.6089 68.3989 25.1734 68.3989 24.6178V18.2734H69.2953V24.6178C69.2953 25.3974 69.0028 26.009 68.4177 26.4528C67.8325 26.8964 67.0253 27.1183 65.9961 27.1183ZM73.8148 26.9814C72.8437 26.9814 72.1237 26.7679 71.6547 26.3408C71.1857 25.9137 70.9513 25.2606 70.9513 24.3815V20.8734C70.9513 19.9942 71.1857 19.3412 71.6547 18.914C72.1237 18.4869 72.8437 18.2734 73.8148 18.2734H76.8152V18.9948H73.8148C73.1425 18.9948 72.6466 19.1483 72.327 19.4551C72.0074 19.7621 71.8477 20.2348 71.8477 20.8734V22.2667H76.1803V22.9882H71.8477V24.3815C71.8477 25.0201 72.0074 25.4928 72.327 25.7996C72.6466 26.1065 73.1425 26.2599 73.8148 26.2599H76.89V26.9814H73.8148ZM81.7207 18.2734H84.8207C85.7338 18.2734 86.4579 18.4144 86.9932 18.6963C87.5286 18.9784 87.9167 19.4345 88.1573 20.0647C88.3981 20.6951 88.5184 21.5493 88.5184 22.6274C88.5184 23.7138 88.4001 24.5702 88.1636 25.1963C87.927 25.8225 87.5411 26.2765 87.0057 26.5585C86.4704 26.8405 85.742 26.9814 84.8207 26.9814H81.7207V18.2734ZM84.8207 26.2599C85.5096 26.2599 86.0574 26.1418 86.4641 25.9054C86.8708 25.669 87.1655 25.2875 87.3481 24.7609C87.5308 24.2342 87.622 23.5272 87.622 22.6398C87.622 21.7524 87.5286 21.0434 87.3419 20.5126C87.1551 19.9818 86.8584 19.5962 86.4517 19.3557C86.045 19.1151 85.5013 18.9948 84.8207 18.9948H82.6171V26.2599H84.8207ZM94.8306 24.1824H90.8963L90.0373 26.9814H89.1409L91.3944 19.7039C91.577 19.1151 91.7741 18.7066 91.9858 18.4786C92.1974 18.2505 92.4899 18.1365 92.8635 18.1365C93.237 18.1365 93.5317 18.2505 93.7474 18.4786C93.9633 18.7066 94.1624 19.1151 94.3451 19.7039L96.5985 26.9814H95.6896L94.8306 24.1824ZM94.619 23.4857L93.4611 19.7164C93.3698 19.4345 93.2826 19.2395 93.1996 19.1317C93.1166 19.0238 93.0045 18.97 92.8635 18.97C92.7307 18.97 92.6227 19.0238 92.5398 19.1317C92.4567 19.2395 92.3696 19.4345 92.2782 19.7164L91.1204 23.4857H94.619ZM93.5109 15.4991H94.4322L93.1996 17.3031H92.5148L93.5109 15.4991Z" fill="#02498C"/>
<path d="M59.6774 44.5949C57.8856 44.5949 56.5195 44.1854 55.579 43.3664C54.6387 42.5475 54.1685 41.3379 54.1685 39.738V35.662C54.1685 34.062 54.6387 32.8525 55.579 32.0336C56.5195 31.2146 57.8856 30.8051 59.6774 30.8051C60.9228 30.8051 61.9426 31.0114 62.7369 31.4241C63.5311 31.8367 64.1633 32.4558 64.6336 33.2811L62.7083 34.6144C62.3144 34.0049 61.9045 33.5668 61.4788 33.3002C61.053 33.0336 60.4526 32.9002 59.6774 32.9002C58.6989 32.9002 57.984 33.1319 57.533 33.5954C57.0818 34.0588 56.8563 34.7477 56.8563 35.662V39.738C56.8563 40.6522 57.0818 41.3411 57.533 41.8045C57.984 42.268 58.6989 42.4997 59.6774 42.4997C60.5161 42.4997 61.1674 42.3569 61.6312 42.0712C62.0951 41.7855 62.5113 41.3252 62.8798 40.6903L64.7861 42.0998C64.3793 42.6838 63.96 43.1537 63.528 43.5093C63.0959 43.8648 62.5717 44.1346 61.9553 44.3188C61.339 44.5028 60.5797 44.5949 59.6774 44.5949ZM71.0193 44.3664C69.3291 44.3664 68.1155 44.0108 67.3785 43.2997C66.6414 42.5887 66.2729 41.5601 66.2729 40.2141V35.1859C66.2729 33.8399 66.6414 32.8113 67.3785 32.1003C68.1155 31.3891 69.3291 31.0336 71.0193 31.0336H75.4799V33.1287H71.0193C70.3204 33.1287 69.8026 33.2939 69.4658 33.6239C69.129 33.9542 68.9607 34.4747 68.9607 35.1859V36.6524H74.6411V38.7476H68.9607V40.2141C68.9607 40.9125 69.129 41.43 69.4658 41.7664C69.8026 42.1029 70.3204 42.2712 71.0193 42.2712H75.518V44.3664H71.0193ZM88.6135 44.3664H85.7733L84.8965 41.4141C84.7185 40.8046 84.5406 40.3316 84.3628 39.9951C84.1849 39.6586 83.9433 39.4015 83.6383 39.2237C83.3334 39.046 82.9267 38.957 82.4184 38.957H80.4931V44.3664H77.8054V31.0336H83.1999C84.8266 31.0336 86.0275 31.3542 86.8026 31.9955C87.5778 32.6367 87.9654 33.6366 87.9654 34.9954C87.9654 35.8715 87.7336 36.5763 87.2696 37.1095C86.8058 37.6428 86.1673 37.9856 85.354 38.138C86.0021 38.3539 86.4913 38.7286 86.8217 39.2618C87.1521 39.7951 87.4571 40.5189 87.7368 41.4332L88.6135 44.3664ZM83.2762 36.8619C83.8607 36.8619 84.3405 36.7064 84.7153 36.3952C85.0903 36.0842 85.2777 35.6175 85.2777 34.9954C85.2777 34.3732 85.0903 33.9064 84.7153 33.5954C84.3405 33.2843 83.8607 33.1287 83.2762 33.1287H80.4931V36.8619H83.2762ZM93.3981 33.1287H89.376V31.0336H100.108V33.1287H96.0859V44.3664H93.3981V33.1287ZM106.227 44.5949C104.46 44.5949 103.11 44.1854 102.176 43.3664C101.242 42.5475 100.775 41.3379 100.775 39.738V35.662C100.775 34.062 101.242 32.8525 102.176 32.0336C103.11 31.2146 104.46 30.8051 106.227 30.8051C107.993 30.8051 109.344 31.2146 110.278 32.0336C111.212 32.8525 111.679 34.062 111.679 35.662V39.738C111.679 41.3379 111.212 42.5475 110.278 43.3664C109.344 44.1854 107.993 44.5949 106.227 44.5949ZM106.227 42.4997C107.116 42.4997 107.8 42.2617 108.276 41.7855C108.753 41.3093 108.991 40.6268 108.991 39.738V35.662C108.991 34.7731 108.753 34.0906 108.276 33.6145C107.8 33.1383 107.116 32.9002 106.227 32.9002C105.337 32.9002 104.654 33.1383 104.178 33.6145C103.701 34.0906 103.463 34.7731 103.463 35.662V39.738C103.463 40.6268 103.701 41.3093 104.178 41.7855C104.654 42.2617 105.337 42.4997 106.227 42.4997Z" fill="#02498C"/>
<path d="M55.6434 52.6633C55.1295 52.6633 54.7553 52.5532 54.5206 52.3328C54.2859 52.1124 54.1685 51.7881 54.1685 51.3595V49.7221C54.1685 49.2935 54.2859 48.9691 54.5206 48.7487C54.7553 48.5284 55.1295 48.4182 55.6434 48.4182H57.0758V48.9822H55.6434C55.3844 48.9822 55.1933 49.0419 55.0698 49.1611C54.9465 49.2804 54.8848 49.4674 54.8848 49.7221V50.2618H56.7966V50.8197H54.8848V51.3595C54.8848 51.6142 54.9465 51.8011 55.0698 51.9204C55.1933 52.0397 55.3844 52.0993 55.6434 52.0993H57.1001V52.6633H55.6434ZM59.5726 48.4182H61.1324C61.5977 48.4182 61.966 48.487 62.237 48.6244C62.5081 48.7618 62.7044 48.9832 62.8257 49.2885C62.9471 49.5937 63.0078 50.0111 63.0078 50.5408C63.0078 51.0704 62.9471 51.4879 62.8257 51.7931C62.7044 52.0983 62.5081 52.3196 62.237 52.4571C61.966 52.5946 61.5977 52.6633 61.1324 52.6633H59.5726V48.4182ZM61.1324 52.0993C61.4197 52.0993 61.6473 52.0488 61.8152 51.9477C61.9831 51.8466 62.1045 51.6839 62.1793 51.4595C62.2542 51.2352 62.2917 50.9289 62.2917 50.5408C62.2917 50.1526 62.2542 49.8464 62.1793 49.622C62.1045 49.3976 61.9831 49.2349 61.8152 49.1338C61.6473 49.0328 61.4197 48.9822 61.1324 48.9822H60.2888V52.0993H61.1324ZM67.0826 52.736C66.5485 52.736 66.1389 52.6218 65.8536 52.3934C65.5683 52.165 65.4257 51.8466 65.4257 51.4383V48.4182H66.1419V51.4383C66.1419 51.6808 66.2218 51.8648 66.3816 51.9902C66.5414 52.1155 66.7751 52.1781 67.0826 52.1781C67.3901 52.1781 67.6238 52.1155 67.7836 51.9902C67.9434 51.8648 68.0233 51.6808 68.0233 51.4383V48.4182H68.7395V51.4383C68.7395 51.8466 68.5969 52.165 68.3117 52.3934C68.0264 52.6218 67.6167 52.736 67.0826 52.736ZM72.9358 52.736C72.3693 52.736 71.9363 52.6047 71.6369 52.3419C71.3375 52.0791 71.1878 51.6951 71.1878 51.1897V49.8919C71.1878 49.3865 71.3355 49.0024 71.6308 48.7396C71.9262 48.4769 72.3531 48.3454 72.9115 48.3454C73.2958 48.3454 73.6135 48.4081 73.8644 48.5335C74.1152 48.6588 74.3176 48.8487 74.4713 49.1034L73.9615 49.4613C73.832 49.2672 73.6894 49.1268 73.5335 49.0398C73.3778 48.9529 73.1725 48.9094 72.9176 48.9094C72.2418 48.9094 71.904 49.2369 71.904 49.8919V51.1897C71.904 51.8446 72.2458 52.1721 72.9297 52.1721C73.2008 52.1721 73.4193 52.1256 73.5851 52.0326C73.751 51.9396 73.8947 51.7941 74.0162 51.596L74.526 51.9719C74.3358 52.2388 74.1213 52.4328 73.8826 52.5542C73.6439 52.6754 73.3282 52.736 72.9358 52.736ZM79.3291 51.5474H77.5872L77.2534 52.6633H76.5371L77.5993 49.2248C77.6682 48.9984 77.74 48.8226 77.8148 48.6972C77.8896 48.5719 77.9777 48.4819 78.0788 48.4273C78.18 48.3727 78.3075 48.3454 78.4612 48.3454C78.6109 48.3454 78.7363 48.3727 78.8374 48.4273C78.9386 48.4819 79.0276 48.5719 79.1044 48.6972C79.1814 48.8226 79.2542 48.9984 79.323 49.2248L80.3791 52.6633H79.6629L79.3291 51.5474ZM79.1713 51.0138L78.6432 49.2369C78.619 49.156 78.5936 49.0974 78.5674 49.061C78.5411 49.0247 78.5057 49.0064 78.4612 49.0064C78.4167 49.0064 78.3803 49.0247 78.3519 49.061C78.3236 49.0974 78.2973 49.156 78.273 49.2369L77.745 51.0138H79.1713ZM85.5585 51.9719C85.3845 52.2186 85.1913 52.4025 84.9789 52.5238C84.7665 52.6451 84.4944 52.7139 84.1626 52.73L84.1141 52.8998C84.458 52.9362 84.6299 53.1161 84.6299 53.4395C84.6299 53.6295 84.5621 53.7721 84.4266 53.8671C84.291 53.9621 84.0958 54.0096 83.8409 54.0096C83.6144 54.0096 83.408 53.9631 83.2219 53.8701L83.3371 53.5002C83.4828 53.573 83.6265 53.6094 83.7681 53.6094C83.8895 53.6094 83.9785 53.5963 84.0351 53.57C84.0917 53.5437 84.1201 53.5002 84.1201 53.4395C84.1201 53.3748 84.0958 53.3233 84.0472 53.2849C83.9987 53.2465 83.9036 53.2273 83.762 53.2273C83.7297 53.2273 83.6649 53.2313 83.5678 53.2394L83.6892 52.724C83.2118 52.6835 82.8476 52.5339 82.5967 52.2751C82.3458 52.0164 82.2204 51.6546 82.2204 51.1897V49.8919C82.2204 49.3865 82.3681 49.0024 82.6635 48.7396C82.9589 48.4769 83.3857 48.3454 83.9441 48.3454C84.3285 48.3454 84.6461 48.4081 84.897 48.5335C85.1478 48.6588 85.3502 48.8487 85.5039 49.1034L84.9941 49.4613C84.8645 49.2672 84.722 49.1268 84.5662 49.0398C84.4104 48.9529 84.2051 48.9094 83.9502 48.9094C83.2745 48.9094 82.9365 49.2369 82.9365 49.8919V51.1897C82.9365 51.8446 83.2785 52.1721 83.9623 52.1721C84.2334 52.1721 84.4519 52.1256 84.6178 52.0326C84.7837 51.9396 84.9273 51.7941 85.0487 51.596L85.5585 51.9719ZM90.3617 51.5474H88.6199L88.286 52.6633H87.5698L88.6319 49.2248C88.7007 48.9984 88.7726 48.8226 88.8474 48.6972C88.9223 48.5719 89.0103 48.4819 89.1114 48.4273C89.2125 48.3727 89.34 48.3454 89.4938 48.3454C89.6435 48.3454 89.769 48.3727 89.8701 48.4273C89.9712 48.4819 90.0602 48.5719 90.1371 48.6972C90.214 48.8226 90.2869 48.9984 90.3556 49.2248L91.4117 52.6633H90.6955L90.3617 51.5474ZM90.2039 51.0138L89.6759 49.2369C89.6516 49.156 89.6263 49.0974 89.5999 49.061C89.5738 49.0247 89.5383 49.0064 89.4938 49.0064C89.4493 49.0064 89.4128 49.0247 89.3846 49.061C89.3562 49.0974 89.3299 49.156 89.3056 49.2369L88.7776 51.0138H90.2039ZM88.4802 47.9816C88.4883 47.7551 88.548 47.5672 88.6592 47.4176C88.7705 47.268 88.9314 47.1931 89.1418 47.1931C89.2227 47.1931 89.2965 47.2053 89.3633 47.2296C89.4301 47.2538 89.5079 47.2902 89.5969 47.3387C89.7264 47.4075 89.8256 47.4418 89.8944 47.4418C89.947 47.4418 89.9864 47.4186 90.0127 47.3721C90.039 47.3256 90.0582 47.2498 90.0704 47.1447H90.5073C90.4871 47.367 90.4234 47.554 90.3161 47.7056C90.2089 47.8572 90.0683 47.9331 89.8944 47.9331C89.8134 47.9331 89.7396 47.9209 89.6728 47.8967C89.606 47.8724 89.5282 47.836 89.4392 47.7875C89.3097 47.7188 89.2105 47.6844 89.1418 47.6844C89.0811 47.6844 89.0335 47.7076 88.9991 47.7541C88.9648 47.8006 88.9375 47.8765 88.9172 47.9816H88.4802ZM95.0313 52.736C94.477 52.736 94.0521 52.6047 93.7567 52.3419C93.4614 52.0791 93.3137 51.6951 93.3137 51.1897V49.8919C93.3137 49.3865 93.4614 49.0024 93.7567 48.7396C94.0521 48.4769 94.477 48.3454 95.0313 48.3454C95.5856 48.3454 96.0094 48.4769 96.3028 48.7396C96.5961 49.0024 96.7429 49.3865 96.7429 49.8919V51.1897C96.7429 51.6951 96.5961 52.0791 96.3028 52.3419C96.0094 52.6047 95.5856 52.736 95.0313 52.736ZM95.0313 52.1721C95.351 52.1721 95.5968 52.0882 95.7686 51.9204C95.9407 51.7526 96.0267 51.509 96.0267 51.1897V49.8919C96.0267 49.5725 95.9407 49.3289 95.7686 49.1611C95.5968 48.9933 95.351 48.9094 95.0313 48.9094C94.7076 48.9094 94.4598 48.9933 94.2878 49.1611C94.1159 49.3289 94.0298 49.5725 94.0298 49.8919V51.1897C94.0298 51.509 94.1159 51.7526 94.2878 51.9204C94.4598 52.0882 94.7076 52.1721 95.0313 52.1721Z" fill="#008C33"/>
<path d="M25.444 46.8347C37.5363 46.8347 47.3391 37.0368 47.3391 24.9506C47.3391 12.8643 37.5363 3.06641 25.444 3.06641C13.3516 3.06641 3.54886 12.8643 3.54886 24.9506C3.54886 37.0368 13.3516 46.8347 25.444 46.8347Z" fill="url(#paint0_linear)"/>
<path fill-rule="evenodd" clip-rule="evenodd" d="M25.4441 3.7529C29.6393 3.75247 33.7404 4.99551 37.2288 7.32481C40.7171 9.65411 43.4361 12.965 45.0417 16.8389C46.6473 20.7127 47.0676 24.9755 46.2492 29.088C45.4309 33.2006 43.4107 36.9782 40.4443 39.9432C37.4778 42.9082 33.6983 44.9273 29.5837 45.7453C25.4691 46.5632 21.2042 46.1432 17.3284 44.5383C13.4526 42.9335 10.14 40.2159 7.80956 36.7293C5.4791 33.2427 4.23544 29.1436 4.23587 24.9505C4.23645 19.3287 6.47106 13.9374 10.4483 9.96218C14.4254 5.98697 19.8195 3.75347 25.4441 3.7529Z" fill="url(#paint1_linear)"/>
<path fill-rule="evenodd" clip-rule="evenodd" d="M3.70908 22.3105C6.17051 23.4432 7.56374 20.7339 11.5896 25.3143C14.1659 28.2466 18.3282 30.6224 18.5362 34.7458C18.7117 38.2109 21.9358 40.7686 21.6022 44.4177C21.5502 44.9981 21.223 45.65 20.7745 46.3387C23.3712 46.9015 26.0483 46.9903 28.6766 46.6007C30.1934 44.3029 31.2204 43.2569 33.9094 42.7631C41.3348 41.4009 39.3544 37.9987 43.3759 31.5666C44.8233 29.2537 46.3639 27.4735 47.3238 25.7193C47.3238 25.4659 47.3389 25.2125 47.3389 24.957C47.3442 22.1137 46.7937 19.2968 45.7182 16.6646C44.6716 15.7637 43.1831 14.945 41.064 14.3235C37.1638 13.18 33.944 13.0241 32.0459 6.76095C30.6094 2.01812 27.0494 6.11125 21.8838 3.35651C17.2119 4.12825 12.9159 6.3922 9.63935 9.80921C6.36282 13.2262 4.28217 17.6123 3.70908 22.3105Z" fill="#023C72"/>
<path fill-rule="evenodd" clip-rule="evenodd" d="M19.7561 40.6948C18.9869 40.6948 18.6597 40.5389 17.8602 39.0857L12.0251 28.4977C11.6459 27.848 11.1757 27.0597 10.8247 26.3818C10.6557 26.0548 8.6883 23.0662 10.5235 23.0662C11.3404 23.0662 16.2806 26.8496 17.338 27.5556C19.2751 28.8442 20.0074 29.8621 22.172 27.7722L40.206 10.6157C40.4226 10.3991 40.7368 10.057 41.1138 9.68015C42.0505 10.6344 42.8976 11.6725 43.6446 12.7814L21.2338 39.9801C20.7268 40.606 20.521 40.7056 19.7561 40.6948Z" fill="#023C72"/>
<path fill-rule="evenodd" clip-rule="evenodd" d="M5.27135 7.86972C5.10234 11.0489 -4.21905 14.3408 2.32889 20.1708C5.63753 23.1161 6.77941 18.7176 11.4163 23.9953C13.9947 26.9277 18.1571 29.3034 18.3651 33.4269C18.5406 36.8919 21.7625 39.4496 21.431 43.0988C21.2685 44.8746 18.5449 47.3045 17.6825 49.4464C17.338 50.3126 18.4756 51.1291 19.8233 51.7463C23.7451 53.5395 23.5068 52.7945 25.8339 49.3641C29.4394 44.069 29.7991 42.1589 33.7382 41.4355C41.1637 40.0733 39.1833 36.671 43.2048 30.239C45.6706 26.2996 48.405 23.9044 48.0778 20.5346C47.8611 18.2974 47.0551 14.8042 40.8864 13.0002C36.9862 11.8567 33.7686 11.7008 31.8705 5.43767C30.4296 0.67318 26.8544 4.80745 21.665 2.01157C17.0065 -0.489788 17.247 -0.862284 12.0771 2.05921C10.9829 2.67426 9.19318 2.1675 7.88662 2.42088C5.17168 2.94497 5.40352 5.35754 5.27135 7.86972Z" fill="url(#paint2_linear)"/>
<path fill-rule="evenodd" clip-rule="evenodd" d="M5.96685 7.9069C5.91918 8.83164 5.32766 9.65676 4.74263 10.3346C4.09261 11.0948 3.33857 11.7835 2.64954 12.5176C1.88685 13.3298 1.01581 14.3584 0.768798 15.4694C0.391782 17.1587 1.61817 18.6053 2.79255 19.6514C3.61809 20.3855 4.26595 20.6606 5.36016 20.5913C6.35903 20.5263 7.09357 20.3963 8.09677 20.6887C9.61351 21.1219 10.9136 22.3779 11.9406 23.5366C14.5819 26.5404 18.8352 28.9313 19.0671 33.3926C19.0937 33.8561 19.1751 34.3148 19.3097 34.7591C19.6023 35.7575 20.1093 36.7082 20.586 37.6243C21.5068 39.4045 22.3194 41.0894 22.1309 43.1619C21.9424 45.2345 19.1646 47.634 18.3304 49.7066C18.3217 49.7256 18.3173 49.7463 18.3174 49.7672C18.3174 49.9427 18.6207 50.2004 18.7507 50.3087C19.1699 50.6326 19.6277 50.9032 20.1136 51.1143C20.6835 51.3763 22.3692 52.1971 23.0127 51.9437C23.3269 51.8181 23.6303 51.4067 23.8209 51.1424C24.3215 50.4473 24.7721 49.6936 25.2575 48.9768C25.797 48.1841 26.3192 47.385 26.8349 46.5794C27.2444 45.9427 27.6474 45.3016 28.07 44.6736C28.72 43.6947 29.448 42.7245 30.4101 42.0163C31.3721 41.3081 32.4533 40.9681 33.6125 40.7559C35.4218 40.4223 37.4044 39.8896 38.5614 38.3433C39.2721 37.3969 39.7163 36.091 40.1388 34.9887C40.7941 33.2122 41.6229 31.5047 42.6132 29.8907C43.5384 28.4115 44.5915 27.0493 45.5752 25.6156C46.2946 24.5696 47.0334 23.3893 47.3086 22.1332C47.4152 21.6353 47.4437 21.1239 47.3931 20.6172C47.2631 19.2919 46.9598 18.1224 46.1581 17.0266C44.8818 15.268 42.7302 14.2762 40.7 13.6828C39.1703 13.2345 37.5517 12.9074 36.1108 12.2123C33.3525 10.8825 32.0676 8.46997 31.2009 5.6481C30.9951 4.96591 30.6636 4.16678 29.9637 3.86358C29.5473 3.71487 29.105 3.65225 28.6636 3.6795C28.0136 3.6795 27.3636 3.7553 26.7136 3.78129C24.7635 3.85492 23.0886 3.56472 21.3465 2.63348C20.4516 2.17003 19.5676 1.63944 18.6662 1.2063C18.1783 0.939321 17.6435 0.768738 17.091 0.703864C16.5122 0.702825 15.9408 0.833934 15.4204 1.08719C14.3931 1.5589 13.3914 2.08445 12.4195 2.66163C11.5896 3.12942 10.5495 3.09477 9.62867 3.05579C9.09206 3.01166 8.55223 3.02618 8.01877 3.0991C7.45541 3.20955 6.93539 3.42828 6.59738 3.90906C6.25936 4.38984 6.16403 4.9919 6.09686 5.53549C6.00802 6.31729 6.00802 7.11643 5.96685 7.90257V7.9069Z" fill="url(#paint3_linear)"/>
<path fill-rule="evenodd" clip-rule="evenodd" d="M10.5365 23.0663C11.3924 23.1053 16.2849 26.8541 17.338 27.5557C19.2751 28.8443 20.0074 29.8622 22.172 27.7723L38.4054 12.3159C39.1941 12.5476 40.0239 12.749 40.8885 13.0046C41.5645 13.1998 42.2274 13.4378 42.8732 13.7171L21.2338 39.9802C21.1515 40.0798 21.0778 40.1665 21.0171 40.2401C20.1938 37.9423 18.4907 35.9088 18.365 33.4269C18.1484 29.3121 13.9947 26.9299 11.4162 23.9954C11.1086 23.6445 10.816 23.3457 10.5365 23.0663Z" fill="#01742B"/>
<path fill-rule="evenodd" clip-rule="evenodd" d="M19.0129 40.015C18.2437 40.002 17.9166 39.8591 17.1192 38.4059L11.2819 27.8158C10.9028 27.1661 10.4326 26.3799 10.0816 25.7021C9.91256 25.3751 7.94514 22.3864 9.78038 22.3864C10.5973 22.3864 15.5375 26.1699 16.5948 26.8737C18.5319 28.1731 19.2643 29.1823 21.4289 27.0903L39.4628 9.91864C39.9352 9.44653 40.895 8.35286 41.9221 7.64035C44.0303 6.17852 45.7442 7.65118 44.936 9.41837C44.6414 10.0681 44.0693 10.6701 43.636 11.218L20.4993 39.3004C19.9836 39.9262 19.7778 40.0259 19.0129 40.015Z" fill="url(#paint4_linear)"/>
<path fill-rule="evenodd" clip-rule="evenodd" d="M9.74982 23.0834H9.70215C9.7426 23.3985 9.83178 23.7053 9.96649 23.993C10.0966 24.2831 10.2412 24.5664 10.3998 24.8419C10.5017 25.0195 10.6165 25.2015 10.7119 25.3812C11.078 26.0894 11.4962 26.7759 11.8949 27.4667V27.4797L17.7322 38.0699C17.8795 38.3341 18.3258 39.1679 18.6422 39.2762C18.7676 39.3072 18.8966 39.321 19.0257 39.3173C19.5847 39.3173 19.6042 39.2935 19.9639 38.856L43.0811 10.791C43.4733 10.2929 44.0388 9.70821 44.301 9.13647C44.4591 8.79213 44.5306 8.3395 44.2663 8.02548C43.7831 7.44941 42.8016 7.88471 42.3162 8.22039C41.4105 8.84843 40.7236 9.64757 39.9544 10.4164L39.9414 10.4294L21.9075 27.601C21.1253 28.346 20.1438 29.117 18.9932 28.9654C18.003 28.8419 17.0236 27.9973 16.2068 27.4494C15.7734 27.1527 15.3249 26.8257 14.8937 26.5117C14.2437 26.0417 13.5936 25.5718 12.9436 25.1083C12.2936 24.6449 11.5872 24.1554 10.8895 23.7136C10.5304 23.4681 10.1488 23.257 9.74982 23.0834Z" fill="url(#paint5_linear)"/>
<defs>
<linearGradient id="paint0_linear" x1="37.2455" y1="7.63496" x2="12.9267" y2="43.7965" gradientUnits="userSpaceOnUse">
<stop offset="0.1875" stop-color="#003F7E"/>
<stop offset="0.915393" stop-color="#045CA8"/>
</linearGradient>
<linearGradient id="paint1_linear" x1="36.8787" y1="8.17859" x2="13.3205" y2="43.2093" gradientUnits="userSpaceOnUse">
<stop stop-color="#003F7E"/>
<stop offset="0.915393" stop-color="#045CA8"/>
</linearGradient>
<linearGradient id="paint2_linear" x1="24.0523" y1="0" x2="24.0523" y2="52.6901" gradientUnits="userSpaceOnUse">
<stop offset="0.354167" stop-color="#008434"/>
<stop offset="0.473958" stop-color="#008434"/>
<stop offset="0.604167" stop-color="#008434"/>
<stop offset="0.864583" stop-color="#00A53F"/>
</linearGradient>
<linearGradient id="paint3_linear" x1="24.0584" y1="0.703857" x2="24.0584" y2="51.9917" gradientUnits="userSpaceOnUse">
<stop offset="0.140625" stop-color="#00AA49"/>
<stop offset="0.354167" stop-color="#008434"/>
<stop offset="0.473958" stop-color="#008434"/>
<stop offset="0.604167" stop-color="#008434"/>
<stop offset="0.864583" stop-color="#00A53F"/>
</linearGradient>
<linearGradient id="paint4_linear" x1="44.5599" y1="12.6218" x2="24.0051" y2="42.0428" gradientUnits="userSpaceOnUse">
<stop stop-color="#FFEA00"/>
<stop offset="1" stop-color="#FFCC00"/>
</linearGradient>
<linearGradient id="paint5_linear" x1="27.0723" y1="7.74463" x2="27.0723" y2="39.3179" gradientUnits="userSpaceOnUse">
<stop offset="0.171875" stop-color="#FFE834"/>
<stop offset="0.385417" stop-color="#FFD632"/>
<stop offset="0.485436" stop-color="#FFD632"/>
<stop offset="0.583333" stop-color="#FFD632"/>
<stop offset="0.609375" stop-color="#FFD632"/>
<stop offset="0.817708" stop-color="#FFEB3F"/>
</linearGradient>
</defs>
</svg>
