<svg width="189" height="56" viewBox="0 0 189 56" fill="none" xmlns="http://www.w3.org/2000/svg">
<path d="M182 1.11999C185.22 1.11999 187.88 3.78 187.88 7V49C187.88 52.22 185.22 54.88 182 54.88H7C3.78 54.88 1.12 52.22 1.12 49V7C1.12 3.78 3.78 1.11999 7 1.11999H182ZM182 0H7C3.08 0 0 3.08 0 7V49C0 52.92 3.08 56 7 56H182C185.92 56 189 52.92 189 49V7C189 3.08 185.92 0 182 0Z" fill="white"/>
<path d="M95.3402 30.38C91.9802 30.38 89.3202 32.9 89.3202 36.4C89.3202 39.76 91.9802 42.4201 95.3402 42.4201C98.7002 42.4201 101.36 39.9 101.36 36.4C101.36 32.9 98.7002 30.38 95.3402 30.38ZM95.3402 40.04C93.5202 40.04 91.9802 38.5 91.9802 36.4C91.9802 34.3 93.5202 32.76 95.3402 32.76C97.1602 32.76 98.7002 34.16 98.7002 36.4C98.7002 38.5 97.1602 40.04 95.3402 40.04ZM82.3202 30.38C78.9602 30.38 76.3002 32.9 76.3002 36.4C76.3002 39.76 78.9602 42.4201 82.3202 42.4201C85.6802 42.4201 88.3402 39.9 88.3402 36.4C88.3402 32.9 85.6802 30.38 82.3202 30.38ZM82.3202 40.04C80.5002 40.04 78.9602 38.5 78.9602 36.4C78.9602 34.3 80.5002 32.76 82.3202 32.76C84.1402 32.76 85.6802 34.16 85.6802 36.4C85.6802 38.5 84.1402 40.04 82.3202 40.04ZM66.7802 32.2V34.7201H72.8002C72.6602 36.1201 72.1002 37.24 71.4002 37.94C70.5602 38.78 69.1602 39.76 66.7802 39.76C63.0002 39.76 60.2002 36.82 60.2002 33.04C60.2002 29.26 63.1402 26.32 66.7802 26.32C68.7402 26.32 70.2802 27.16 71.4002 28.14L73.2202 26.32C71.6802 24.92 69.7202 23.8 66.9202 23.8C61.8802 23.8 57.5402 28 57.5402 33.04C57.5402 38.08 61.8802 42.28 66.9202 42.28C69.7202 42.28 71.6802 41.4401 73.3602 39.6201C75.0402 37.9401 75.6002 35.56 75.6002 33.74C75.6002 33.18 75.6002 32.62 75.4602 32.2H66.7802ZM130.34 34.16C129.78 32.76 128.38 30.38 125.3 30.38C122.22 30.38 119.7 32.76 119.7 36.4C119.7 39.76 122.22 42.4201 125.58 42.4201C128.24 42.4201 129.92 40.74 130.48 39.76L128.52 38.36C127.82 39.34 126.98 40.04 125.58 40.04C124.18 40.04 123.34 39.4801 122.64 38.2201L130.62 34.86L130.34 34.16ZM122.22 36.1201C122.22 33.8801 124.04 32.6201 125.3 32.6201C126.28 32.6201 127.26 33.18 127.54 33.88L122.22 36.1201ZM115.64 42H118.3V24.5H115.64V42ZM111.44 31.78C110.74 31.08 109.62 30.38 108.22 30.38C105.28 30.38 102.48 33.04 102.48 36.4C102.48 39.76 105.14 42.28 108.22 42.28C109.62 42.28 110.74 41.58 111.3 40.88H111.44V41.7201C111.44 43.9601 110.18 45.2201 108.22 45.2201C106.68 45.2201 105.56 44.1001 105.28 43.1201L103.04 44.1C103.74 45.6401 105.42 47.6 108.36 47.6C111.44 47.6 113.96 45.78 113.96 41.44V30.8H111.44V31.78ZM108.36 40.04C106.54 40.04 105 38.5 105 36.4C105 34.3 106.54 32.76 108.36 32.76C110.18 32.76 111.58 34.3 111.58 36.4C111.58 38.5 110.18 40.04 108.36 40.04ZM142.52 24.5H136.22V42H138.88V35.28H142.52C145.46 35.28 148.26 33.1801 148.26 29.8201C148.26 26.6001 145.46 24.5 142.52 24.5ZM142.66 32.9H138.88V26.88H142.66C144.62 26.88 145.74 28.5601 145.74 29.8201C145.6 31.2201 144.48 32.9 142.66 32.9ZM158.76 30.38C156.8 30.38 154.84 31.22 154.14 33.04L156.52 34.0201C157.08 33.0401 157.92 32.76 158.9 32.76C160.3 32.76 161.56 33.6 161.7 35V35.14C161.28 34.86 160.16 34.44 159.04 34.44C156.52 34.44 154 35.84 154 38.36C154 40.74 156.1 42.28 158.34 42.28C160.16 42.28 161 41.4401 161.7 40.6H161.84V42H164.36V35.28C164.08 32.06 161.7 30.38 158.76 30.38ZM158.48 40.04C157.64 40.04 156.38 39.62 156.38 38.5C156.38 37.1 157.92 36.68 159.18 36.68C160.3 36.68 160.86 36.96 161.56 37.24C161.28 38.78 159.88 40.04 158.48 40.04ZM173.18 30.8L170.24 38.36H170.1L167.02 30.8H164.22L168.84 41.44L166.18 47.3201H168.84L175.98 30.8H173.18ZM149.66 42H152.32V24.5H149.66V42Z" fill="white"/>
<path d="M14.5599 10.5002C14.1399 10.9202 13.8599 11.6202 13.8599 12.4602V43.4002C13.8599 44.2402 14.1399 44.9402 14.5599 45.3602L14.6999 45.5002L32.0599 28.1402V28.0002V27.8602L14.5599 10.5002Z" fill="url(#paint0_linear)"/>
<path d="M37.7998 33.8799L32.0598 28.1399V27.9999V27.8599L37.7998 22.1199L37.9398 22.2599L44.7998 26.1799C46.7598 27.2999 46.7598 29.1199 44.7998 30.2399L37.7998 33.8799Z" fill="url(#paint1_linear)"/>
<path d="M37.9398 33.8802L32.0598 28.0002L14.5598 45.5002C15.2598 46.2002 16.2398 46.2002 17.4998 45.6402L37.9398 33.8802Z" fill="url(#paint2_linear)"/>
<path d="M37.9398 21.9804L17.4998 10.3604C16.2398 9.66036 15.2598 9.80037 14.5598 10.5004L32.0598 28.0004L37.9398 21.9804Z" fill="url(#paint3_linear)"/>
<path opacity="0.2" d="M37.7998 33.7402L17.4998 45.2203C16.3798 45.9203 15.3998 45.7803 14.6998 45.2203L14.5598 45.3602L14.6998 45.5002C15.3998 46.0602 16.3798 46.2002 17.4998 45.5002L37.7998 33.7402Z" fill="black"/>
<path opacity="0.12" d="M14.5599 45.22C14.1399 44.8 13.8599 44.1 13.8599 43.26V43.4C13.8599 44.24 14.1399 44.94 14.5599 45.36V45.22Z" fill="black"/>
<path opacity="0.12" d="M44.7998 29.8202L37.7998 33.7402L37.9398 33.8802L44.7998 29.9602C45.7798 29.4002 46.1998 28.7002 46.1998 28.0002C46.1998 28.5602 45.6398 29.2602 44.7998 29.8202Z" fill="black"/>
<path opacity="0.25" d="M17.499 10.6393L44.799 26.1793C45.639 26.7393 46.199 27.2993 46.199 27.9993C46.199 27.2993 45.779 26.5993 44.799 26.0393L17.499 10.4993C15.539 9.37929 13.999 10.3593 13.999 12.5993V12.7393C13.999 10.4993 15.539 9.51929 17.499 10.6393Z" fill="white"/>
<path d="M57.82 18.2005V9.80054H60.34C61.6 9.80054 62.72 10.2205 63.42 10.9205C64.26 11.7605 64.54 12.7405 64.54 14.0005C64.54 15.2605 64.12 16.2405 63.42 17.0805C62.58 17.9205 61.6 18.2005 60.34 18.2005H57.82ZM58.94 17.0805H60.48C61.46 17.0805 62.16 16.8005 62.72 16.2405C63.28 15.6805 63.56 14.8405 63.56 13.8605C63.56 12.8805 63.28 12.0405 62.72 11.4805C62.16 10.9205 61.32 10.6405 60.48 10.6405H58.94V17.0805Z" fill="white" stroke="white" stroke-width="0.2" stroke-miterlimit="10"/>
<path d="M66.22 18.2005V9.80054H67.34V18.2005H66.22Z" fill="white" stroke="white" stroke-width="0.2" stroke-miterlimit="10"/>
<path d="M71.5399 18.3403C70.9799 18.3403 70.2799 18.2003 69.7199 17.7803C69.1599 17.3603 68.7399 16.8003 68.5999 16.1003L69.5799 15.6803C69.7199 16.1003 69.9999 16.5203 70.2799 16.8003C70.6999 17.0803 71.1199 17.2203 71.5399 17.2203C71.9599 17.2203 72.3799 17.0803 72.7999 16.8003C73.0799 16.5203 73.3599 16.2403 73.3599 15.8203C73.3599 15.4003 73.2199 14.9803 72.7999 14.7003C72.5199 14.4203 71.9599 14.1403 71.2599 14.0003C70.5599 13.7203 69.9999 13.4403 69.5799 13.1603C69.1599 12.7403 69.0199 12.3203 69.0199 11.7603C69.0199 11.2003 69.2999 10.6403 69.7199 10.2203C70.1399 9.80026 70.8399 9.52026 71.5399 9.52026C72.2399 9.52026 72.7999 9.66027 73.2199 10.0803C73.6399 10.5003 73.9199 10.7803 74.0599 11.2003L73.0799 11.6203C72.9399 11.3403 72.7999 11.0603 72.5199 10.9203C72.2399 10.6403 71.8199 10.6403 71.3999 10.6403C70.9799 10.6403 70.6999 10.7803 70.2799 10.9203C69.9999 11.2003 69.8599 11.4803 69.8599 11.7603C69.8599 12.0403 69.9999 12.3203 70.2799 12.6003C70.5599 12.8803 70.9799 13.0203 71.5399 13.1603C71.9599 13.3003 72.2399 13.4403 72.5199 13.5803C72.7999 13.7203 73.0799 13.8603 73.3599 14.1403C73.6399 14.2803 73.9199 14.5603 74.0599 14.9803C74.1999 15.2603 74.3399 15.6803 74.3399 16.1003C74.3399 16.5203 74.1999 16.9403 74.0599 17.2203C73.9199 17.5003 73.6399 17.7803 73.3599 17.9203C73.0799 18.0603 72.7999 18.2003 72.5199 18.3403C72.2399 18.4803 71.9599 18.3403 71.5399 18.3403Z" fill="white" stroke="white" stroke-width="0.2" stroke-miterlimit="10"/>
<path d="M77.0001 18.2005H75.8801V9.80054H78.6801C79.3801 9.80054 79.9401 10.0805 80.5001 10.5005C81.0601 10.9205 81.3401 11.6205 81.3401 12.3205C81.3401 13.0205 81.0601 13.5805 80.5001 14.1405C79.9401 14.5605 79.3801 14.8405 78.6801 14.8405H77.0001V18.2005ZM77.0001 13.7205H78.8201C79.2401 13.7205 79.6601 13.5805 79.9401 13.3005C80.2201 13.0205 80.3601 12.6005 80.3601 12.3205C80.3601 12.0405 80.2201 11.6205 79.9401 11.3405C79.6601 11.0605 79.2401 10.9205 78.8201 10.9205H77.0001V13.7205Z" fill="white" stroke="white" stroke-width="0.2" stroke-miterlimit="10"/>
<path d="M89.6001 17.0804C88.7601 17.9204 87.7801 18.3404 86.5201 18.3404C85.2601 18.3404 84.2801 17.9204 83.4401 17.0804C82.6001 16.2404 82.1801 15.2604 82.1801 14.0004C82.1801 12.7404 82.6001 11.7604 83.4401 10.9204C84.2801 10.0804 85.2601 9.6604 86.5201 9.6604C87.7801 9.6604 88.7601 10.0804 89.6001 10.9204C90.4401 11.7604 90.8601 12.7404 90.8601 14.0004C90.8601 15.1204 90.4401 16.2404 89.6001 17.0804ZM84.2801 16.3804C84.8401 16.9404 85.6801 17.3604 86.5201 17.3604C87.3601 17.3604 88.2001 17.0804 88.7601 16.3804C89.3201 15.8204 89.74 14.9804 89.74 14.0004C89.74 13.0204 89.4601 12.1804 88.7601 11.6204C88.2001 11.0604 87.3601 10.6404 86.5201 10.6404C85.6801 10.6404 84.8401 10.9204 84.2801 11.6204C83.7201 12.1804 83.3001 13.0204 83.3001 14.0004C83.3001 14.9804 83.7201 15.6804 84.2801 16.3804Z" fill="white" stroke="white" stroke-width="0.2" stroke-miterlimit="10"/>
<path d="M92.3999 18.2005V9.80054H93.6599L97.7199 16.3805V14.7005V9.80054H98.8399V18.2005H97.7199L93.3799 11.3405V13.0205V18.2005H92.3999Z" fill="white" stroke="white" stroke-width="0.2" stroke-miterlimit="10"/>
<path d="M100.8 18.2003V9.80031H101.92V18.2003H100.8ZM101.78 9.10031H100.8L101.36 7.5603H102.48L101.78 9.10031Z" fill="white" stroke="white" stroke-width="0.2" stroke-miterlimit="10"/>
<path d="M105.84 18.2005L102.9 9.80054H104.16L106.4 16.6605L108.78 9.80054H110.04L106.96 18.2005H105.84Z" fill="white" stroke="white" stroke-width="0.2" stroke-miterlimit="10"/>
<path d="M116.2 10.7804H112.42V13.4404H115.92V14.4204H112.42V17.0804H116.2V18.0604H111.3V9.6604H116.2V10.7804Z" fill="white" stroke="white" stroke-width="0.2" stroke-miterlimit="10"/>
<path d="M117.88 18.2005V9.80054H119V17.2205H122.64V18.2005H117.88Z" fill="white" stroke="white" stroke-width="0.2" stroke-miterlimit="10"/>
<path d="M126.84 18.2005V9.80054H128.1L132.16 16.3805V14.7005V9.80054H133.28V18.2005H132.16L127.82 11.3405V13.0205V18.2005H126.84Z" fill="white" stroke="white" stroke-width="0.2" stroke-miterlimit="10"/>
<path d="M142.1 17.0804C141.26 17.9204 140.28 18.3404 139.02 18.3404C137.76 18.3404 136.78 17.9204 135.94 17.0804C135.1 16.2404 134.68 15.2604 134.68 14.0004C134.68 12.7404 135.1 11.7604 135.94 10.9204C136.78 10.0804 137.76 9.6604 139.02 9.6604C140.28 9.6604 141.26 10.0804 142.1 10.9204C142.94 11.7604 143.36 12.7404 143.36 14.0004C143.22 15.1204 142.8 16.2404 142.1 17.0804ZM136.64 16.3804C137.2 16.9404 138.04 17.3604 138.88 17.3604C139.72 17.3604 140.56 17.0804 141.12 16.3804C141.68 15.8204 142.1 14.9804 142.1 14.0004C142.1 13.0204 141.82 12.1804 141.12 11.6204C140.56 11.0604 139.72 10.6404 138.88 10.6404C138.04 10.6404 137.2 10.9204 136.64 11.6204C136.08 12.1804 135.66 13.0204 135.66 14.0004C135.8 14.9804 136.08 15.6804 136.64 16.3804Z" fill="white" stroke="white" stroke-width="0.2" stroke-miterlimit="10"/>
<defs>
<linearGradient id="paint0_linear" x1="30.5193" y1="12.1524" x2="7.02394" y2="35.6477" gradientUnits="userSpaceOnUse">
<stop stop-color="#00A0FF"/>
<stop offset="0.00657445" stop-color="#00A1FF"/>
<stop offset="0.2601" stop-color="#00BEFF"/>
<stop offset="0.5122" stop-color="#00D2FF"/>
<stop offset="0.7604" stop-color="#00DFFF"/>
<stop offset="1" stop-color="#00E3FF"/>
</linearGradient>
<linearGradient id="paint1_linear" x1="47.3679" y1="27.9605" x2="13.4922" y2="27.9605" gradientUnits="userSpaceOnUse">
<stop stop-color="#FFE000"/>
<stop offset="0.4087" stop-color="#FFBD00"/>
<stop offset="0.7754" stop-color="#FFA500"/>
<stop offset="1" stop-color="#FF9C00"/>
</linearGradient>
<linearGradient id="paint2_linear" x1="34.7575" y1="31.1733" x2="2.8959" y2="63.035" gradientUnits="userSpaceOnUse">
<stop stop-color="#FF3A44"/>
<stop offset="1" stop-color="#C31162"/>
</linearGradient>
<linearGradient id="paint3_linear" x1="10.2159" y1="0.2056" x2="24.4436" y2="14.4331" gradientUnits="userSpaceOnUse">
<stop stop-color="#32A071"/>
<stop offset="0.0685" stop-color="#2DA771"/>
<stop offset="0.4762" stop-color="#15CF74"/>
<stop offset="0.8009" stop-color="#06E775"/>
<stop offset="1" stop-color="#00F076"/>
</linearGradient>
</defs>
</svg>
